<svg width="72" height="72" viewBox="0 0 72 72" fill="none" xmlns="http://www.w3.org/2000/svg">
<path fill-rule="evenodd" clip-rule="evenodd" d="M20.8412 10.6522L9.79715 15.1054L20.663 19.5586H51.4795L62.1672 15.1054L51.6576 10.6522H20.8412ZM0 25.615L7.12518 16.8867L19.238 21.8743L16.566 32.9183L0 25.615ZM1.06874 28.8214L16.566 36.1247L32.0633 67.8317L1.06874 28.8214ZM55.7546 36.1247L71.2518 28.8214L40.0792 67.8317L55.7546 36.1247ZM22.088 22.5868L19.3804 32.9183H52.851L50.2325 22.5868H22.088ZM52.8511 22.0168L65.3736 17.2429L71.9644 25.4369L55.9149 32.9183L52.8511 22.0168ZM52.851 36.57H19.3804L36.1246 70.0762L52.851 36.57Z" fill="url(#paint0_linear)"/>
<path d="M66.6561 1.92383L67.2229 6.70091L72 7.26771L67.2229 7.83452L66.6561 12.6116L66.0893 7.83452L61.3123 7.26771L66.0893 6.70091L66.6561 1.92383Z" fill="#FFAD3C"/>
<path d="M12.5047 57.144L12.807 59.6918L15.3548 59.9941L12.807 60.2963L12.5047 62.8441L12.2024 60.2963L9.65466 59.9941L12.2024 59.6918L12.5047 57.144Z" fill="#FFAD3C"/>
<path d="M6.98273 9.93964L7.26614 12.3282L9.65468 12.6116L7.26614 12.895L6.98273 15.2835L6.69933 12.895L4.31079 12.6116L6.69933 12.3282L6.98273 9.93964Z" fill="#FFAD3C"/>
<defs>
<linearGradient id="paint0_linear" x1="-1.74601" y1="-10.6341" x2="41.6604" y2="73.5588" gradientUnits="userSpaceOnUse">
<stop stop-color="#FF25A8"/>
<stop offset="1" stop-color="#FFDA17"/>
</linearGradient>
</defs>
</svg>
