<svg width="56" height="56" viewBox="0 0 56 56" fill="none" xmlns="http://www.w3.org/2000/svg">
<path d="M52 30.4632V8.22727C52 4.22818 48.717 1 44.65 1H10.35C6.283 1 3 4.22818 3 8.22727V46.7727C3 50.7718 6.283 54 10.35 54H44.65C48.717 54 52 50.7718 52 46.7727V30.4632Z" stroke="#22272F" stroke-width="2" stroke-linecap="round" stroke-linejoin="round"/>
<path d="M44.4277 34.7799C44.214 33.0726 42.7378 32.0176 40.8343 32.0176C39.1249 32.0176 36.9689 32.8616 37.1437 35.0101C37.4156 38.7699 44.9716 36.4872 44.4471 41.0527C44.1946 43.2395 41.6695 43.604 40.9508 43.604C40.2321 43.604 37.202 43.297 36.425 40.1319" stroke="#22272F" stroke-width="2" stroke-linecap="round" stroke-linejoin="round"/>
<path d="M40.8925 29.0254V46.7694" stroke="#22272F" stroke-width="2" stroke-linecap="round" stroke-linejoin="round"/>
<path d="M11.225 11.2451H20.9569" stroke="#22272F" stroke-width="2" stroke-linecap="round" stroke-linejoin="round"/>
<path d="M11.225 15.0947H20.9569" stroke="#22272F" stroke-width="2" stroke-linecap="round" stroke-linejoin="round"/>
<path d="M18.9156 26.6795L11.5137 18.8808H15.225C17.2662 18.8808 18.9363 17.2518 18.9363 15.2156V14.8898C18.9363 12.8739 17.2868 11.2246 15.225 11.2246" stroke="#22272F" stroke-width="2" stroke-linecap="round" stroke-linejoin="round"/>
<path d="M36 13L45 13" stroke="#22272F" stroke-width="2" stroke-linecap="round"/>
<path d="M11 36L20 36" stroke="#22272F" stroke-width="2" stroke-linecap="round"/>
<path d="M30 21L45 21" stroke="#22272F" stroke-width="2" stroke-linecap="round"/>
<path d="M11 44L26 44" stroke="#22272F" stroke-width="2" stroke-linecap="round"/>
</svg>
