<?xml version="1.0" encoding="UTF-8"?>
<svg version="1.1" xmlns="http://www.w3.org/2000/svg" width="512" height="512">
<path d="M0 0 C1.51427582 0.00081573 1.51427582 0.00081573 3.05914307 0.00164795 C19.57229403 0.04242277 35.48017849 0.96211211 51.6875 4.375 C52.71875 4.58930664 53.75 4.80361328 54.8125 5.02441406 C103.41292641 15.45831811 146.13116989 40.05828628 181.6875 74.375 C182.62851562 75.27476563 183.56953125 76.17453125 184.5390625 77.1015625 C190.41254639 82.82957311 195.62293947 88.92682242 200.6875 95.375 C201.47898437 96.36113281 202.27046875 97.34726563 203.0859375 98.36328125 C226.58093319 128.12113857 243.28593339 162.96005267 251.5 200 C251.68272461 200.81968262 251.86544922 201.63936523 252.05371094 202.48388672 C255.55009792 219.39386183 257.19216202 236.22590626 257.07861328 253.47949219 C257.06250096 256.37482763 257.07860183 259.26876806 257.09765625 262.1640625 C257.11265234 275.44450114 255.86220842 288.27984885 253.6875 301.375 C253.49945801 302.51243652 253.31141602 303.64987305 253.11767578 304.82177734 C252.65107565 307.4169845 252.13234952 309.98816627 251.5625 312.5625 C251.35786133 313.48844971 251.15322266 314.41439941 250.94238281 315.3684082 C240.60655661 359.81909585 218.29842102 400.55440564 186.6875 433.375 C186.05537598 434.03435547 185.42325195 434.69371094 184.77197266 435.37304688 C175.62752521 444.86130305 166.33015991 453.6012044 155.6875 461.375 C154.53644983 462.23306152 153.38540823 463.09113451 152.234375 463.94921875 C144.04474019 469.98677396 135.54211724 475.36957302 126.6875 480.375 C125.98028809 480.7771875 125.27307617 481.179375 124.54443359 481.59375 C98.3970517 496.31495028 69.37576215 506.01459116 39.6875 510.375 C38.482146 510.55232666 37.27679199 510.72965332 36.03491211 510.91235352 C24.39888483 512.50764801 12.85675476 512.73453114 1.125 512.6875 C0.15605804 512.68534485 -0.81288391 512.6831897 -1.81118774 512.68096924 C-61.70533082 512.46742088 -119.77502998 491.65652366 -165.3125 452.375 C-166.05757813 451.74078125 -166.80265625 451.1065625 -167.5703125 450.453125 C-181.07529833 438.64198485 -193.74668743 425.89139772 -204.3125 411.375 C-205.16899066 410.22505169 -206.02576433 409.07531411 -206.8828125 407.92578125 C-212.92284209 399.73565742 -218.30617614 391.23120382 -223.3125 382.375 C-223.7146875 381.66778809 -224.116875 380.96057617 -224.53125 380.23193359 C-230.82457909 369.05389946 -235.80440724 357.62359559 -240.3046875 345.6171875 C-244.17959856 335.10617261 -244.17959856 335.10617261 -250.84765625 326.2734375 C-254.91532424 321.00173978 -255.75523329 315.73935837 -255.70068359 309.234375 C-255.70594055 308.45099762 -255.71119751 307.66762024 -255.71661377 306.86050415 C-255.72976256 304.28179667 -255.72108026 301.70371337 -255.7109375 299.125 C-255.71296293 297.3068022 -255.71587826 295.4886052 -255.71963501 293.67041016 C-255.72405421 289.85408821 -255.71765231 286.03797705 -255.70361328 282.22167969 C-255.68671389 277.39951769 -255.69652705 272.57785907 -255.71392918 267.75571537 C-255.83358471 228.79425918 -255.83358471 228.79425918 -252.3125 210.375 C-252.08820313 209.15828613 -251.86390625 207.94157227 -251.6328125 206.68798828 C-251.03729269 203.74603019 -250.36415416 200.84628748 -249.625 197.9375 C-249.37081299 196.91438721 -249.11662598 195.89127441 -248.85473633 194.8371582 C-237.69920676 151.22675065 -216.57861719 111.83759572 -185.3125 79.375 C-184.68037598 78.71564453 -184.04825195 78.05628906 -183.39697266 77.37695312 C-174.25252521 67.88869695 -164.95515991 59.1487956 -154.3125 51.375 C-153.16144983 50.51693848 -152.01040823 49.65886549 -150.859375 48.80078125 C-142.66974019 42.76322604 -134.16711724 37.38042698 -125.3125 32.375 C-124.60528809 31.9728125 -123.89807617 31.570625 -123.16943359 31.15625 C-100.03404164 18.1308259 -74.86287591 9.38198539 -48.875 4.0625 C-48.15610596 3.91514404 -47.43721191 3.76778809 -46.6965332 3.6159668 C-31.16987908 0.66484793 -15.76936592 -0.03207988 0 0 Z " fill="#BF694E" transform="translate(255.3125,-0.375)"/>
<path d="M0 0 C1.51427582 0.00081573 1.51427582 0.00081573 3.05914307 0.00164795 C19.57229403 0.04242277 35.48017849 0.96211211 51.6875 4.375 C52.71875 4.58930664 53.75 4.80361328 54.8125 5.02441406 C103.41292641 15.45831811 146.13116989 40.05828628 181.6875 74.375 C182.62851562 75.27476563 183.56953125 76.17453125 184.5390625 77.1015625 C190.41254639 82.82957311 195.62293947 88.92682242 200.6875 95.375 C201.47898437 96.36113281 202.27046875 97.34726563 203.0859375 98.36328125 C226.58093319 128.12113857 243.28593339 162.96005267 251.5 200 C251.68272461 200.81968262 251.86544922 201.63936523 252.05371094 202.48388672 C255.55009792 219.39386183 257.19216202 236.22590626 257.07861328 253.47949219 C257.06250096 256.37482763 257.07860183 259.26876806 257.09765625 262.1640625 C257.11265234 275.44450114 255.86220842 288.27984885 253.6875 301.375 C253.49945801 302.51243652 253.31141602 303.64987305 253.11767578 304.82177734 C252.65107565 307.4169845 252.13234952 309.98816627 251.5625 312.5625 C251.35786133 313.48844971 251.15322266 314.41439941 250.94238281 315.3684082 C240.60655661 359.81909585 218.29842102 400.55440564 186.6875 433.375 C186.05537598 434.03435547 185.42325195 434.69371094 184.77197266 435.37304688 C175.62752521 444.86130305 166.33015991 453.6012044 155.6875 461.375 C154.53644983 462.23306152 153.38540823 463.09113451 152.234375 463.94921875 C129.93978923 480.375 129.93978923 480.375 125.6875 480.375 C125.54722663 461.08607847 125.44147849 441.7972607 125.37662697 422.50793457 C125.34571243 413.55117728 125.30357818 404.59473723 125.23486328 395.63818359 C125.1749873 387.82999296 125.13633338 380.02203212 125.12296903 372.21361828 C125.11515899 368.08046705 125.09685494 363.94797313 125.05311966 359.81503296 C125.01224828 355.92100386 124.99985972 352.02789976 125.00885391 348.13367653 C125.00720969 346.70825986 124.99536003 345.28281073 124.97226715 343.85758018 C124.83529236 334.96404672 125.55700759 329.88772411 131.6875 323.375 C135.03932152 317.36837996 135.14076496 312.06810018 135.12109375 305.359375 C135.1263356 304.30776184 135.13157745 303.25614868 135.13697815 302.17266846 C135.14338202 299.95382568 135.14208262 297.73494888 135.13354492 295.51611328 C135.12506158 292.14943782 135.15377808 288.78447578 135.18554688 285.41796875 C135.18715995 283.25260467 135.18657933 281.08723762 135.18359375 278.921875 C135.20044472 277.4322525 135.20044472 277.4322525 135.21763611 275.91253662 C135.10406273 264.31915107 131.14464428 254.92330397 123.02734375 246.69140625 C112.906856 237.44695161 101.6896676 236.08791936 88.4375 235.9609375 C87.18364502 235.94157135 85.92979004 235.9222052 84.63793945 235.9022522 C81.33038324 235.85283066 78.02285914 235.81146547 74.71514893 235.77410889 C71.32953189 235.73385366 67.94407768 235.68286038 64.55859375 235.6328125 C57.93500114 235.53705308 51.31133668 235.45192556 44.6875 235.375 C44.66171875 234.09625 44.6359375 232.8175 44.609375 231.5 C44.55305525 229.79163435 44.49570882 228.08330233 44.4375 226.375 C44.42332031 225.53582031 44.40914063 224.69664062 44.39453125 223.83203125 C44.16634822 217.94490917 43.04638387 213.2902489 39.6875 208.375 C37.2621087 206.25785967 37.2621087 206.25785967 34.5625 204.8125 C29.78582051 201.77530495 29.78582051 201.77530495 28.8125 197.8125 C27.39759081 193.48916635 26.21733889 193.20410393 22.25 191.1875 C16.50390153 188.53251176 10.67486021 186.5522219 4.6875 184.375 C4.6875 171.175 4.6875 157.975 4.6875 144.375 C0.9856424 142.1513932 0.9856424 142.1513932 -2.3125 142.375 C-3.93827039 143.67278718 -3.93827039 143.67278718 -5.5 145.4375 C-8.00683458 148.0604406 -10.55631271 150.51484739 -13.3125 152.875 C-16.53925563 155.65497408 -19.54063145 158.57990098 -22.5234375 161.6171875 C-25.01848323 164.06865165 -27.65680165 166.33592049 -30.3203125 168.6015625 C-32.444598 170.39583068 -32.444598 170.39583068 -34.39208984 172.94604492 C-38.33791133 176.22785214 -41.05364579 176.07546908 -46.03125 176.01171875 C-46.87783676 176.02123566 -47.72442352 176.03075256 -48.59666443 176.04055786 C-50.40216658 176.05887127 -52.20780346 176.0665071 -54.01339722 176.06436157 C-58.687933 176.06125272 -63.36122361 176.14226251 -68.03515625 176.2109375 C-68.9440712 176.22210098 -69.85298615 176.23326447 -70.78944397 176.24476624 C-92.99754787 176.54074879 -131.58965554 178.65215554 -148.3125 195.375 C-148.580625 196.53 -148.84875 197.685 -149.125 198.875 C-149.516875 200.03 -149.90875 201.185 -150.3125 202.375 C-152.88671875 203.59375 -152.88671875 203.59375 -155.3125 204.375 C-155.31392502 203.53419388 -155.31535004 202.69338776 -155.31681824 201.82710266 C-155.33466085 193.89638143 -155.37631129 185.96621747 -155.44459057 178.03576374 C-155.47885603 173.95874514 -155.50396976 169.88210105 -155.50805664 165.80493164 C-155.5123407 161.86883916 -155.54081076 157.93359144 -155.58593178 153.99776268 C-155.59890361 152.49754955 -155.60321551 150.99723531 -155.59865379 149.49697304 C-155.59374482 147.39199685 -155.61984475 145.28948702 -155.65307617 143.18481445 C-155.66306892 141.38945 -155.66306892 141.38945 -155.67326355 139.55781555 C-156.50184622 135.4322282 -158.03263258 133.93706657 -161.3125 131.375 C-163.28391198 130.64353338 -163.28391198 130.64353338 -165.2890625 130.72802734 C-166.40547119 130.70438614 -166.40547119 130.70438614 -167.54443359 130.68026733 C-168.33414551 130.69038849 -169.12385742 130.70050964 -169.9375 130.7109375 C-170.7620166 130.70615387 -171.5865332 130.70137024 -172.43603516 130.69644165 C-174.17417313 130.69304878 -175.91237544 130.70220847 -177.65039062 130.72314453 C-180.30483825 130.74992271 -182.95505825 130.72338004 -185.609375 130.69140625 C-187.30209263 130.69471046 -188.99480763 130.70111694 -190.6875 130.7109375 C-191.47721191 130.70081635 -192.26692383 130.69069519 -193.08056641 130.68026733 C-193.82483887 130.69602814 -194.56911133 130.71178894 -195.3359375 130.72802734 C-195.98481934 130.73200531 -196.63370117 130.73598328 -197.30224609 130.74008179 C-200.75156185 131.82951302 -202.15982281 133.4936221 -204.3125 136.375 C-205.0420748 139.62466844 -205.003149 142.80238438 -204.97192383 146.12231445 C-204.98764938 147.58644524 -204.98764938 147.58644524 -205.00369263 149.08015442 C-205.03244671 152.29985324 -205.02615043 155.51847701 -205.01953125 158.73828125 C-205.032646 160.9731735 -205.04794954 163.2080539 -205.06535339 165.44291687 C-205.10524185 171.32018269 -205.11539638 177.1971387 -205.11938477 183.07452393 C-205.12870886 189.07386699 -205.16611793 195.07302748 -205.20117188 201.07226562 C-205.26578708 212.83983519 -205.29899499 224.60726856 -205.3125 236.375 C-206.57964844 236.41238281 -207.84679687 236.44976562 -209.15234375 236.48828125 C-210.85158931 236.55399793 -212.5508068 236.62044323 -214.25 236.6875 C-215.08080078 236.71005859 -215.91160156 236.73261719 -216.76757812 236.75585938 C-227.38092278 237.21012704 -236.29777451 240.68105987 -244.0703125 248.0390625 C-249.18153098 253.66397128 -252.14088594 260.13628648 -254.3125 267.375 C-254.6425 267.375 -254.9725 267.375 -255.3125 267.375 C-256.53060085 196.85633086 -234.85559058 130.81398458 -185.3125 79.375 C-184.68037598 78.71564453 -184.04825195 78.05628906 -183.39697266 77.37695312 C-174.25252521 67.88869695 -164.95515991 59.1487956 -154.3125 51.375 C-153.16144983 50.51693848 -152.01040823 49.65886549 -150.859375 48.80078125 C-142.66974019 42.76322604 -134.16711724 37.38042698 -125.3125 32.375 C-124.60528809 31.9728125 -123.89807617 31.570625 -123.16943359 31.15625 C-100.03404164 18.1308259 -74.86287591 9.38198539 -48.875 4.0625 C-48.15610596 3.91514404 -47.43721191 3.76778809 -46.6965332 3.6159668 C-31.16987908 0.66484793 -15.76936592 -0.03207988 0 0 Z " fill="#7BD1E2" transform="translate(255.3125,-0.375)"/>
<path d="M0 0 C0.18685338 19.34065656 0.32794088 38.68113007 0.41449738 58.02250195 C0.4557549 67.00301974 0.51200534 75.98297685 0.60351562 84.96313477 C0.6832353 92.78997601 0.73486115 100.61641125 0.75270796 108.44364721 C0.76314137 112.58866179 0.78766942 116.73251485 0.84584045 120.87715721 C0.90015646 124.77875268 0.91689136 128.67870888 0.90486145 132.58064651 C0.90706191 134.01220042 0.92297223 135.44380926 0.9536438 136.87503624 C1.17397193 147.68679924 1.17397193 147.68679924 -1.7147522 150.91811562 C-3.77699458 152.23605908 -5.71464485 153.13887207 -8 154 C-9.21345991 154.62836286 -10.42167624 155.26710599 -11.62109375 155.921875 C-42.75121488 171.11589962 -77.95350669 181.01961402 -112.7578125 181.203125 C-114.10438683 181.21371445 -114.10438683 181.21371445 -115.47816467 181.22451782 C-180.24807874 181.6181284 -241.23088514 163.93182432 -291 121 C-291.74507813 120.36578125 -292.49015625 119.7315625 -293.2578125 119.078125 C-306.76279833 107.26698485 -319.43418743 94.51639772 -330 80 C-330.85649066 78.85005169 -331.71326433 77.70031411 -332.5703125 76.55078125 C-338.61034209 68.36065742 -343.99367614 59.85620382 -349 51 C-349.4021875 50.29278809 -349.804375 49.58557617 -350.21875 48.85693359 C-358.65661367 33.86983746 -366.19938774 17.84542204 -370 1 C-364.91348802 3.7338359 -359.95827054 6.62453696 -355.0625 9.6875 C-339.60062384 19.21487571 -323.83279375 27.15329934 -307 34 C-306.1455127 34.35304199 -305.29102539 34.70608398 -304.41064453 35.06982422 C-292.02217647 40.12342894 -279.33226804 43.63761265 -266.375 46.875 C-265.60209625 47.06845001 -264.8291925 47.26190002 -264.03286743 47.46121216 C-255.07183956 49.68761887 -246.1467752 51.67177737 -237 53 C-236.94392578 54.32064453 -236.94392578 54.32064453 -236.88671875 55.66796875 C-236.82097656 56.82941406 -236.75523437 57.99085938 -236.6875 59.1875 C-236.60048828 60.91033203 -236.60048828 60.91033203 -236.51171875 62.66796875 C-235.97235751 66.17999272 -235.1005277 68.16299098 -233 71 C-229.72092532 72.63953734 -226.08738321 72.15632139 -222.48291016 72.16113281 C-221.60146835 72.16609772 -220.72002655 72.17106262 -219.81187439 72.17617798 C-216.8875959 72.19081739 -213.96337165 72.19760443 -211.0390625 72.203125 C-209.01126096 72.20887483 -206.98345945 72.21463258 -204.95565796 72.22039795 C-200.70025376 72.23091289 -196.44486849 72.23675238 -192.18945312 72.24023438 C-186.73275331 72.24572125 -181.27630276 72.2697514 -175.81968117 72.29820633 C-171.62984483 72.316816 -167.44006873 72.32203741 -163.25019455 72.32357025 C-161.23832206 72.3266009 -159.22645073 72.33464326 -157.21461868 72.34775543 C-154.40151165 72.36478157 -151.58901634 72.36294412 -148.77587891 72.35644531 C-147.94248489 72.3656601 -147.10909088 72.37487488 -146.2504425 72.3843689 C-142.93499642 72.36033621 -140.4655676 72.24997233 -137.51400757 70.66522217 C-134.53548865 67.38921759 -134.73072004 63.54324628 -134.4375 59.3125 C-134.35371094 58.13300781 -134.26992187 56.95351563 -134.18359375 55.73828125 C-134.12300781 54.83464844 -134.06242188 53.93101562 -134 53 C-133.09181519 52.83564453 -133.09181519 52.83564453 -132.1652832 52.66796875 C-86.27947455 44.2355034 -41.32929648 29.11502976 -3.203125 1.546875 C-1 0 -1 0 0 0 Z " fill="#AD583E" transform="translate(381,331)"/>
<path d="M0 0 C1.84904262 0.50848672 3.68072387 1.08107462 5.5 1.6875 C8.46616874 1.80809979 11.4105516 1.87293804 14.37768555 1.89282227 C15.73896576 1.90767166 15.73896576 1.90767166 17.12774658 1.92282104 C20.13071067 1.9544362 23.13369058 1.9791936 26.13671875 2.00390625 C28.21751825 2.02447576 30.29831356 2.04547223 32.37910461 2.06687927 C37.85845558 2.12210024 43.33784426 2.17150945 48.81726074 2.21972656 C54.40750489 2.26994137 59.9976942 2.32562755 65.58789062 2.38085938 C76.55854867 2.48844129 87.52925324 2.58938071 98.5 2.6875 C98.5 9.9475 98.5 17.2075 98.5 24.6875 C115 24.6875 131.5 24.6875 148.5 24.6875 C148.5 17.4275 148.5 10.1675 148.5 2.6875 C153.33398438 2.39453125 153.33398438 2.39453125 158.16796875 2.1015625 C161.31720464 1.71021548 163.60404227 0.91290526 166.5 -0.3125 C170.68185925 -0.22537793 172.1504057 0.37674951 175.3125 3.1875 C176.034375 4.0125 176.75625 4.8375 177.5 5.6875 C177.83 6.0175 178.16 6.3475 178.5 6.6875 C178.58631874 8.03017413 178.60706473 9.37724322 178.59765625 10.72265625 C178.59443359 11.53154297 178.59121094 12.34042969 178.58789062 13.17382812 C178.57951172 14.02396484 178.57113281 14.87410156 178.5625 15.75 C178.55798828 16.60400391 178.55347656 17.45800781 178.54882812 18.33789062 C178.53700373 20.45445663 178.51906769 22.57098685 178.5 24.6875 C179.31717499 24.68083817 180.13434998 24.67417633 180.97628784 24.66731262 C188.71384686 24.60696002 196.45129018 24.5614037 204.18902397 24.53206348 C208.166158 24.51647181 212.14309596 24.49535396 216.12011719 24.46118164 C219.9651085 24.42835417 223.80991236 24.41059824 227.65503311 24.40286827 C229.11490958 24.39736639 230.57477692 24.38662365 232.0345726 24.37030983 C246.55803997 24.21460172 258.20600945 26.86077225 269.25 36.8125 C275.46532497 43.39603143 279.55286262 52.42930517 279.69287109 61.48095703 C279.71696548 62.90361374 279.71696548 62.90361374 279.74154663 64.35501099 C279.78633383 68.69499764 279.82707786 73.03483576 279.85009766 77.375 C279.86662215 79.65602852 279.89386539 81.93700601 279.93212891 84.21777344 C279.98723294 87.52305708 280.0088254 90.82712975 280.0234375 94.1328125 C280.04610687 95.14046661 280.06877625 96.14812073 280.09213257 97.18630981 C280.0654927 106.22833403 276.90667553 114.16455087 270.5 120.6875 C268.11466325 122.53284471 265.6171925 124.14988267 263.0625 125.75 C262.3187915 126.22115234 261.57508301 126.69230469 260.80883789 127.17773438 C229.5678845 146.77230818 174.56403687 179.2680767 135.5 173.6875 C133.8125 171.3125 133.8125 171.3125 132.5 168.6875 C129.05394663 166.30916365 125.81226701 166.41354672 121.71191406 166.36865234 C120.70154335 166.35358391 120.70154335 166.35358391 119.67076111 166.33821106 C117.4523908 166.30740979 115.234141 166.29035279 113.015625 166.2734375 C111.47433436 166.25472335 109.93305394 166.23514975 108.39178467 166.2147522 C104.34110542 166.16345089 100.29039296 166.12381456 96.23956299 166.08660889 C92.10363564 166.04655663 87.96784621 165.99546987 83.83203125 165.9453125 C75.72144842 165.84857693 67.61079726 165.76416467 59.5 165.6875 C59.26432427 142.89725368 59.26432427 142.89725368 60.625 132 C60.75624268 130.92387451 60.88748535 129.84774902 61.02270508 128.73901367 C64.38520735 103.15540308 71.81683916 79.01642232 82.875 55.75 C83.6321228 54.15297241 83.6321228 54.15297241 84.40454102 52.52368164 C88.8750144 43.40111094 94.03424779 35.43270353 99.5 26.6875 C63.2 26.3575 26.9 26.0275 -10.5 25.6875 C-10.5 6.6875 -10.5 6.6875 -5.5 1.6875 C-2.5 -0.3125 -2.5 -0.3125 0 0 Z " fill="#C87D67" transform="translate(111.5,210.3125)"/>
<path d="M0 0 C1.51427582 0.00081573 1.51427582 0.00081573 3.05914307 0.00164795 C19.57229403 0.04242277 35.48017849 0.96211211 51.6875 4.375 C52.71875 4.58930664 53.75 4.80361328 54.8125 5.02441406 C103.41292641 15.45831811 146.13116989 40.05828628 181.6875 74.375 C182.62851562 75.27476563 183.56953125 76.17453125 184.5390625 77.1015625 C190.41254639 82.82957311 195.62293947 88.92682242 200.6875 95.375 C201.47898437 96.36113281 202.27046875 97.34726563 203.0859375 98.36328125 C226.58093319 128.12113857 243.28593339 162.96005267 251.5 200 C251.68272461 200.81968262 251.86544922 201.63936523 252.05371094 202.48388672 C255.55009792 219.39386183 257.19216202 236.22590626 257.07861328 253.47949219 C257.06250096 256.37482763 257.07860183 259.26876806 257.09765625 262.1640625 C257.11788358 279.58714918 255.0996128 296.63885863 251.1875 313.625 C250.98769531 314.53894531 250.78789062 315.45289063 250.58203125 316.39453125 C249.22342129 322.47798857 247.55506792 328.42894611 245.6875 334.375 C245.3575 334.375 245.0275 334.375 244.6875 334.375 C244.68607498 333.40891312 244.68464996 332.44282623 244.68318176 331.44746399 C244.66650659 322.33949812 244.62371733 313.23197874 244.55540943 304.12424946 C244.5211298 299.44189877 244.49602796 294.75987469 244.49194336 290.07739258 C244.48766246 285.55780036 244.45921752 281.03894502 244.41406822 276.51958275 C244.40108647 274.79607626 244.39678796 273.07248162 244.40134621 271.34893227 C244.40624769 268.93274163 244.38018392 266.51870847 244.34692383 264.1027832 C244.35986229 263.03571136 244.35986229 263.03571136 244.37306213 261.94708252 C244.28418668 258.09162672 243.76868548 256.47585514 241.31945801 253.43322754 C238.2632741 251.04324949 236.78397318 250.72948887 232.94921875 250.66796875 C231.88251953 250.63896484 230.81582031 250.60996094 229.71679688 250.58007812 C228.61400391 250.57427734 227.51121094 250.56847656 226.375 250.5625 C225.25287109 250.53736328 224.13074219 250.51222656 222.97460938 250.48632812 C220.21188714 250.4275468 217.45074608 250.3912002 214.6875 250.375 C214.58727539 249.43406494 214.48705078 248.49312988 214.38378906 247.52368164 C212.05610256 223.17022109 212.05610256 223.17022109 206.6875 199.375 C206.42485352 198.49295898 206.16220703 197.61091797 205.89160156 196.70214844 C197.93574272 170.33792669 186.0033281 145.88681374 168.6875 124.375 C167.87023437 123.3540625 167.05296875 122.333125 166.2109375 121.28125 C165.32950485 120.20719946 164.44665994 119.13430655 163.5625 118.0625 C163.1185791 117.51045898 162.6746582 116.95841797 162.21728516 116.38964844 C159.61129094 113.26100609 157.0347728 110.81415294 153.6875 108.484375 C148.5551582 104.67504493 143.69011851 100.96616911 142.2565918 94.40179443 C140.90236626 84.90242477 141.16700271 75.15787517 141.57049561 65.59379578 C141.64237836 63.85524545 141.66960099 62.11494368 141.6875 60.375 C138.66819091 57.35569091 127.18784915 59.05099314 122.88745117 59.02490234 C120.88440328 59.0083442 118.88141445 58.98105606 116.87866211 58.94287109 C113.99561815 58.88815535 111.11396172 58.86623596 108.23046875 58.8515625 C106.88809395 58.81755844 106.88809395 58.81755844 105.51860046 58.78286743 C100.22973879 58.74627316 100.22973879 58.74627316 96.09106445 61.90771484 C95.62788818 62.72191895 95.16471191 63.53612305 94.6875 64.375 C94.098479 64.11807373 93.50945801 63.86114746 92.90258789 63.59643555 C90.18676272 62.41449694 87.46841313 61.23847349 84.75 60.0625 C83.82380859 59.65837891 82.89761719 59.25425781 81.94335938 58.83789062 C76.26163079 56.38577618 70.58713406 54.24473018 64.6875 52.375 C65.1825 51.818125 65.6775 51.26125 66.1875 50.6875 C67.94382099 47.97983847 68.02979288 46.54120913 67.6875 43.375 C65.08654644 40.77404644 57.74893851 42.14035464 54.25 42.125 C53.07888672 42.104375 51.90777344 42.08375 50.70117188 42.0625 C49.58419922 42.05734375 48.46722656 42.0521875 47.31640625 42.046875 C46.28588135 42.0375293 45.25535645 42.02818359 44.19360352 42.01855469 C43.36658936 42.13618164 42.5395752 42.25380859 41.6875 42.375 C41.0275 43.365 40.3675 44.355 39.6875 45.375 C39.13852051 45.31441406 38.58954102 45.25382812 38.02392578 45.19140625 C12.55811778 42.48725674 -14.09762145 41.16005841 -39.3125 46.375 C-40.16521484 46.54660645 -41.01792969 46.71821289 -41.89648438 46.89501953 C-93.75596821 57.58602219 -139.62934255 86.98204286 -171.3125 129.375 C-173.09293905 131.15543905 -175.7342094 130.50499283 -178.140625 130.515625 C-179.33300781 130.53496094 -180.52539062 130.55429688 -181.75390625 130.57421875 C-184.27718531 130.60786247 -186.80071677 130.62628579 -189.32421875 130.62890625 C-190.52175781 130.65339844 -191.71929687 130.67789063 -192.953125 130.703125 C-194.05172852 130.7124707 -195.15033203 130.72181641 -196.28222656 130.73144531 C-200.45072629 131.61673095 -201.7226194 132.99536284 -204.3125 136.375 C-205.04753897 139.62302113 -205.00314336 142.80298423 -204.97192383 146.12231445 C-204.98764938 147.58644524 -204.98764938 147.58644524 -205.00369263 149.08015442 C-205.03244671 152.29985324 -205.02615043 155.51847701 -205.01953125 158.73828125 C-205.032646 160.9731735 -205.04794954 163.2080539 -205.06535339 165.44291687 C-205.10524185 171.32018269 -205.11539638 177.1971387 -205.11938477 183.07452393 C-205.12870886 189.07386699 -205.16611793 195.07302748 -205.20117188 201.07226562 C-205.26578708 212.83983519 -205.29899499 224.60726856 -205.3125 236.375 C-206.57964844 236.41238281 -207.84679687 236.44976562 -209.15234375 236.48828125 C-210.85158931 236.55399793 -212.5508068 236.62044323 -214.25 236.6875 C-215.08080078 236.71005859 -215.91160156 236.73261719 -216.76757812 236.75585938 C-227.38092278 237.21012704 -236.29777451 240.68105987 -244.0703125 248.0390625 C-249.18153098 253.66397128 -252.14088594 260.13628648 -254.3125 267.375 C-254.6425 267.375 -254.9725 267.375 -255.3125 267.375 C-256.53060085 196.85633086 -234.85559058 130.81398458 -185.3125 79.375 C-184.68037598 78.71564453 -184.04825195 78.05628906 -183.39697266 77.37695312 C-174.25252521 67.88869695 -164.95515991 59.1487956 -154.3125 51.375 C-153.16144983 50.51693848 -152.01040823 49.65886549 -150.859375 48.80078125 C-142.66974019 42.76322604 -134.16711724 37.38042698 -125.3125 32.375 C-124.60528809 31.9728125 -123.89807617 31.570625 -123.16943359 31.15625 C-100.03404164 18.1308259 -74.86287591 9.38198539 -48.875 4.0625 C-48.15610596 3.91514404 -47.43721191 3.76778809 -46.6965332 3.6159668 C-31.16987908 0.66484793 -15.76936592 -0.03207988 0 0 Z " fill="#60C8DD" transform="translate(255.3125,-0.375)"/>
<path d="M0 0 C4.12494151 -0.05784708 8.24977944 -0.09354407 12.375 -0.125 C13.550625 -0.14175781 14.72625 -0.15851562 15.9375 -0.17578125 C17.61972656 -0.18544922 17.61972656 -0.18544922 19.3359375 -0.1953125 C20.37282715 -0.20578613 21.4097168 -0.21625977 22.47802734 -0.22705078 C25 0 25 0 27 2 C27.3125 4.4375 27.3125 4.4375 27 7 C25.48046875 8.66015625 25.48046875 8.66015625 24 10 C24.73637695 10.29245605 25.47275391 10.58491211 26.23144531 10.88623047 C29.57168809 12.21400594 32.91085254 13.54447253 36.25 14.875 C37.98830078 15.56529297 37.98830078 15.56529297 39.76171875 16.26953125 C40.87675781 16.71425781 41.99179687 17.15898438 43.140625 17.6171875 C44.16704102 18.02565918 45.19345703 18.43413086 46.25097656 18.85498047 C48.56058611 19.81697592 50.78241771 20.84481592 53 22 C53.46390137 21.186521 53.92780273 20.37304199 54.40576172 19.53491211 C57.68944282 16.32632366 59.37138056 16.41452602 63.80545044 16.38221741 C64.69722992 16.40174973 65.5890094 16.42128204 66.5078125 16.44140625 C67.89055862 16.44490334 67.89055862 16.44490334 69.30123901 16.44847107 C71.24633054 16.45820178 73.19139398 16.4799734 75.13623047 16.51293945 C78.12119232 16.56243686 81.10450819 16.57442501 84.08984375 16.58007812 C85.97918429 16.59416065 87.86851047 16.61036381 89.7578125 16.62890625 C91.10155441 16.6369503 91.10155441 16.6369503 92.47244263 16.64515686 C93.30025238 16.66114426 94.12806213 16.67713165 94.98095703 16.69360352 C96.0753862 16.70956322 96.0753862 16.70956322 97.19192505 16.72584534 C99 17 99 17 101 19 C101.25396729 20.8215332 101.25396729 20.8215332 101.25878906 23.05078125 C101.26509338 23.88504639 101.27139771 24.71931152 101.27789307 25.57885742 C101.27182037 26.9320105 101.27182037 26.9320105 101.265625 28.3125 C101.26753845 29.23716064 101.2694519 30.16182129 101.27142334 31.11450195 C101.27278566 33.07145459 101.26908596 35.02841624 101.26074219 36.98535156 C101.25004334 39.9878359 101.26063591 42.98972187 101.2734375 45.9921875 C101.27211591 47.89062633 101.26955354 49.78906478 101.265625 51.6875 C101.26967346 52.58960205 101.27372192 53.4917041 101.27789307 54.42114258 C101.26843658 55.67254028 101.26843658 55.67254028 101.25878906 56.94921875 C101.25719788 57.68487061 101.25560669 58.42052246 101.25396729 59.1784668 C101 61 101 61 99 63 C96 63.25 96 63.25 93 63 C90.36008732 60.36008732 90.69759203 59.02053704 90.5859375 55.3359375 C90.54726563 54.21445313 90.50859375 53.09296875 90.46875 51.9375 C90.42234375 50.1740625 90.42234375 50.1740625 90.375 48.375 C90.33632813 47.19164062 90.29765625 46.00828125 90.2578125 44.7890625 C90.16331155 41.85953309 90.07775442 38.93001403 90 36 C89.52107992 36.48352904 89.04215984 36.96705809 88.54872704 37.46523952 C76.89441349 49.2299772 65.22629868 60.98083115 53.54263878 72.71642208 C47.89283591 78.39200596 42.24780382 84.07218682 36.61376953 89.76342773 C31.70310008 94.72393505 26.78370294 99.67558882 21.85362875 104.61681372 C19.24349668 107.23346385 16.63794434 109.85433365 14.04279709 112.4858532 C11.14544498 115.42348143 8.2287791 118.34116999 5.31005859 121.25756836 C4.45266083 122.1329425 3.59526306 123.00831665 2.71188354 123.91021729 C1.91270508 124.70252243 1.11352661 125.49482758 0.29013062 126.31114197 C-0.39752695 127.0034085 -1.08518452 127.69567503 -1.79368019 128.40891933 C-4.53973407 130.38922754 -6.64831021 130.76362704 -10 131 C-11.984375 129.91137695 -11.984375 129.91137695 -13.75 128.17578125 C-14.76513672 127.2024585 -14.76513672 127.2024585 -15.80078125 126.20947266 C-16.52652344 125.48034668 -17.25226563 124.7512207 -18 124 C-18.79792969 123.23091309 -19.59585938 122.46182617 -20.41796875 121.66943359 C-22.9698662 119.19913751 -25.48762844 116.69794193 -28 114.1875 C-28.87011719 113.32962891 -29.74023438 112.47175781 -30.63671875 111.58789062 C-31.86841797 110.3590918 -31.86841797 110.3590918 -33.125 109.10546875 C-33.87007812 108.36449951 -34.61515625 107.62353027 -35.3828125 106.86010742 C-37 105 -37 105 -37 103 C-39.64738916 101.5393715 -40.89448334 101 -44 101 C-45.62577039 102.29778718 -45.62577039 102.29778718 -47.1875 104.0625 C-49.69433458 106.6854406 -52.24381271 109.13984739 -55 111.5 C-58.22675563 114.27997408 -61.22813145 117.20490098 -64.2109375 120.2421875 C-66.70598323 122.69365165 -69.34430165 124.96092049 -72.0078125 127.2265625 C-74.132098 129.02083068 -74.132098 129.02083068 -76.07958984 131.57104492 C-80.02541133 134.85285214 -82.74114579 134.70046908 -87.71875 134.63671875 C-88.56533676 134.64623566 -89.41192352 134.65575256 -90.28416443 134.66555786 C-92.08966658 134.68387127 -93.89530346 134.6915071 -95.70089722 134.68936157 C-100.375433 134.68625272 -105.04872361 134.76726251 -109.72265625 134.8359375 C-110.6315712 134.84710098 -111.54048615 134.85826447 -112.47694397 134.86976624 C-134.68504787 135.16574879 -173.27715554 137.27715554 -190 154 C-190.268125 155.155 -190.53625 156.31 -190.8125 157.5 C-191.204375 158.655 -191.59625 159.81 -192 161 C-194.57421875 162.21875 -194.57421875 162.21875 -197 163 C-197.00142502 162.15919388 -197.00285004 161.31838776 -197.00431824 160.45210266 C-197.02216085 152.52138143 -197.06381129 144.59121747 -197.13209057 136.66076374 C-197.16635603 132.58374514 -197.19146976 128.50710105 -197.19555664 124.42993164 C-197.1998407 120.49383916 -197.22831076 116.55859144 -197.27343178 112.62276268 C-197.28640361 111.12254955 -197.29071551 109.62223531 -197.28615379 108.12197304 C-197.28124482 106.01699685 -197.30734475 103.91448702 -197.34057617 101.80981445 C-197.34723801 100.61290482 -197.35389984 99.41599518 -197.36076355 98.18281555 C-198.18441261 94.0817931 -199.77933395 92.58485468 -203 90 C-205.87099682 89.19543137 -205.87099682 89.19543137 -208.8125 89.1875 C-210.27623047 89.11595703 -210.27623047 89.11595703 -211.76953125 89.04296875 C-212.50558594 89.02878906 -213.24164063 89.01460938 -214 89 C-202.21028681 70.78934462 -185.63465362 54.5487974 -168 42 C-167.32388672 41.51724609 -166.64777344 41.03449219 -165.95117188 40.53710938 C-141.66021087 23.38148052 -114.59510727 11.11067938 -85.5 4.8125 C-84.43446899 4.57998535 -84.43446899 4.57998535 -83.34741211 4.34277344 C-70.01363773 1.61510661 -56.826609 0.65272428 -43.25 0.75 C-42.51585876 0.7521048 -41.78171753 0.75420959 -41.02532959 0.75637817 C-12.83752694 0.85087568 -12.83752694 0.85087568 -2 4 C-1.34 2.68 -0.68 1.36 0 0 Z " fill="#7CD2E2" transform="translate(297,41)"/>
<path d="M0 0 C0.8273465 -0.0066568 1.65469299 -0.0133136 2.5071106 -0.02017212 C4.2571592 -0.03029468 6.00724637 -0.03498926 7.75732422 -0.03466797 C10.42871098 -0.03903536 13.09843747 -0.07534098 15.76953125 -0.11328125 C17.47134853 -0.11915076 19.17317364 -0.12311925 20.875 -0.125 C21.67098602 -0.13937103 22.46697205 -0.15374207 23.28707886 -0.16854858 C27.24277775 -0.13612613 29.13061978 0.05512474 32.55126953 2.23974609 C35.59096503 5.39558957 35.70076765 7.15633264 35.74084663 11.4339571 C35.75332156 12.52022493 35.76579649 13.60649275 35.77864945 14.72567779 C35.78733264 15.92885137 35.79601584 17.13202494 35.80496216 18.37165833 C35.8178112 19.64234671 35.83066025 20.91303509 35.84389865 22.22222918 C35.87925956 25.76127303 35.9080637 29.30034446 35.93558192 32.83945692 C35.95989122 35.87236813 35.98779674 38.9052426 36.01553823 41.93812404 C36.27705446 70.71046062 36.41885347 99.48378675 36.53325081 128.25703907 C36.54841814 132.00493805 36.56387572 135.7528357 36.57958984 139.50073242 C36.58543051 140.8980145 36.58543051 140.8980145 36.59138916 142.3235245 C36.6562192 157.39839928 36.78402542 172.47209507 36.93604554 187.54631487 C37.09085907 203.0264346 37.18093602 218.50594135 37.21048725 233.98681277 C37.23067079 243.5327291 37.30040621 253.07559306 37.43424593 262.6206034 C37.52118255 269.17097375 37.54477798 275.71970126 37.51934911 282.27059064 C37.50651144 286.04740188 37.52072169 289.81878976 37.61026382 293.59467888 C38.1058045 315.58605945 38.1058045 315.58605945 33.90061712 321.80534148 C30.00194853 325.88363449 25.59762278 328.73717207 20.59463477 331.29081571 C17.85885852 332.70324861 15.37929522 334.43265842 12.859375 336.1953125 C11.31004309 337.16744233 9.75561964 338.13152282 8.1953125 339.0859375 C7.3909375 339.59125 6.5865625 340.0965625 5.7578125 340.6171875 C2.68883019 342.52632031 0.01206454 344.18868682 -3.4296875 345.3359375 C-3.56996087 326.04701597 -3.67570901 306.7581982 -3.74056053 287.46887207 C-3.77147507 278.51211478 -3.81360932 269.55567473 -3.88232422 260.59912109 C-3.9422002 252.79093046 -3.98085412 244.98296962 -3.99421847 237.17455578 C-4.00202851 233.04140455 -4.02033256 228.90891063 -4.06406784 224.77597046 C-4.10493922 220.88194136 -4.11732778 216.98883726 -4.10833359 213.09461403 C-4.10997781 211.66919736 -4.12182747 210.24374823 -4.14492035 208.81851768 C-4.28189514 199.92498422 -3.56017991 194.84866161 2.5703125 188.3359375 C5.92213402 182.32931746 6.02357746 177.02903768 6.00390625 170.3203125 C6.01176903 168.74289276 6.01176903 168.74289276 6.01979065 167.13360596 C6.02619452 164.91476318 6.02489512 162.69588638 6.01635742 160.47705078 C6.00787408 157.11037532 6.03659058 153.74541328 6.06835938 150.37890625 C6.06997245 148.21354217 6.06939183 146.04817512 6.06640625 143.8828125 C6.07764023 142.88973083 6.08887421 141.89664917 6.10044861 140.87347412 C5.99700041 130.31365107 2.77964066 121.14319572 -4.4296875 113.3359375 C-7.57448046 110.33165656 -10.8113639 107.74815324 -14.4296875 105.3359375 C-14.73165809 102.22284395 -14.83886508 99.30812664 -14.81787109 96.19213867 C-14.82312805 95.24402817 -14.82838501 94.29591766 -14.83380127 93.31907654 C-14.84704805 90.17218745 -14.83824448 87.02580086 -14.828125 83.87890625 C-14.83014489 81.69655764 -14.83305562 79.51420969 -14.83682251 77.3318634 C-14.84125262 72.75104364 -14.83479453 68.17039905 -14.82080078 63.58959961 C-14.80373894 57.71819391 -14.81352687 51.84720049 -14.83151817 45.97581005 C-14.84236329 41.46593628 -14.83890576 36.95616007 -14.8311348 32.44628334 C-14.82913324 30.28174097 -14.83159051 28.11718974 -14.83857346 25.9526577 C-14.84619635 22.92417366 -14.83457017 19.89635449 -14.81787109 16.86791992 C-14.82394379 15.97266602 -14.83001648 15.07741211 -14.83627319 14.1550293 C-14.78779041 9.40634315 -14.56418408 6.16021197 -11.4296875 2.3359375 C-7.60278524 -0.21533067 -4.43942014 0.0123502 0 0 Z " fill="#5666CD" transform="translate(384.4296875,134.6640625)"/>
<path d="M0 0 C5.08651198 2.7338359 10.04172946 5.62453696 14.9375 8.6875 C30.39937616 18.21487571 46.16720625 26.15329934 63 33 C63.8544873 33.35304199 64.70897461 33.70608398 65.58935547 34.06982422 C77.97782353 39.12342894 90.66773196 42.63761265 103.625 45.875 C104.39790375 46.06845001 105.1708075 46.26190002 105.96713257 46.46121216 C114.92816044 48.68761887 123.8532248 50.67177737 133 52 C133.05607422 53.32064453 133.05607422 53.32064453 133.11328125 54.66796875 C133.17902344 55.82941406 133.24476563 56.99085938 133.3125 58.1875 C133.39951172 59.91033203 133.39951172 59.91033203 133.48828125 61.66796875 C134.02764249 65.17999272 134.8994723 67.16299098 137 70 C139.57211322 71.28605661 141.56906966 71.21043941 144.4453125 71.31640625 C145.52167969 71.35830078 146.59804687 71.40019531 147.70703125 71.44335938 C148.83496094 71.48267578 149.96289062 71.52199219 151.125 71.5625 C152.26066406 71.60568359 153.39632812 71.64886719 154.56640625 71.69335938 C157.37747768 71.7996604 160.18863945 71.90169405 163 72 C164.60419757 76.54404863 165.76460611 81.11656431 166.8125 85.8125 C174.02965616 116.85298512 186.69699939 144.98468028 204.78857422 171.20605469 C206.28301408 173.41910267 207.66312227 175.68878764 209 178 C161.48210006 173.58327212 114.86480633 150.93769236 79 120 C78.25492187 119.36578125 77.50984375 118.7315625 76.7421875 118.078125 C63.23720167 106.26698485 50.56581257 93.51639772 40 79 C39.14350934 77.85005169 38.28673567 76.70031411 37.4296875 75.55078125 C31.38965791 67.36065742 26.00632386 58.85620382 21 50 C20.5978125 49.29278809 20.195625 48.58557617 19.78125 47.85693359 C11.34338633 32.86983746 3.80061226 16.84542204 0 0 Z " fill="#954C35" transform="translate(11,332)"/>
<path d="M0 0 C1.24526459 -0.01210762 1.24526459 -0.01210762 2.51568604 -0.02445984 C4.27768861 -0.03831882 6.03971823 -0.04903282 7.80175781 -0.05688477 C10.49075736 -0.07405992 13.17851553 -0.11792352 15.8671875 -0.16210938 C17.57811595 -0.17223932 19.28905486 -0.18075448 21 -0.1875 C21.80226013 -0.20500809 22.60452026 -0.22251617 23.43109131 -0.24055481 C27.40822823 -0.22518814 29.3099683 -0.05196327 32.75097656 2.13989258 C36.21015457 5.74285368 35.94650443 8.80381382 36.00610352 13.56762695 C36.02559807 14.70252563 36.02559807 14.70252563 36.04548645 15.86035156 C36.17333369 23.85378314 36.22919363 31.84830313 36.28051758 39.8425293 C36.30702491 43.61462739 36.35540699 47.38542084 36.42407227 51.15698242 C37.12552049 90.63715151 37.12552049 90.63715151 28.74685669 106.38809204 C27.393671 108.93962965 26.30415076 111.58976428 25.18359375 114.25 C24.45145376 115.81395725 23.70832129 117.37282607 22.953125 118.92578125 C22.334375 120.20884155 22.334375 120.20884155 21.703125 121.51782227 C-0.33745662 166.28982206 -0.33745662 166.28982206 -14.234375 173.23828125 C-14.35113929 151.55060493 -14.43932937 129.86298039 -14.49343586 108.1750536 C-14.51922541 98.10512095 -14.55439033 88.03538352 -14.61157227 77.96557617 C-14.66138419 69.18945855 -14.69366055 60.41348229 -14.70481747 51.63722724 C-14.71133999 46.98952371 -14.72668524 42.34222464 -14.76302528 37.69465065 C-14.79694991 33.32056994 -14.80743519 28.94706049 -14.79991341 24.57286072 C-14.80128955 22.96720971 -14.81124345 21.36153971 -14.83040237 19.75600243 C-14.85528745 17.56313962 -14.84929965 15.37243247 -14.83564758 13.17951965 C-14.84025655 11.95261319 -14.84486551 10.72570673 -14.84961414 9.46162128 C-14.06513928 5.3516272 -12.38141409 3.89144042 -9.234375 1.23828125 C-7.17286572 -0.82322803 -2.83853678 0.02587511 0 0 Z " fill="#FEB52D" transform="translate(464.234375,249.76171875)"/>
<path d="M0 0 C1.24526459 -0.01210762 1.24526459 -0.01210762 2.51568604 -0.02445984 C4.27768861 -0.03831882 6.03971823 -0.04903282 7.80175781 -0.05688477 C10.49075736 -0.07405992 13.17851553 -0.11792352 15.8671875 -0.16210938 C17.57811595 -0.17223932 19.28905486 -0.18075448 21 -0.1875 C21.80226013 -0.20500809 22.60452026 -0.22251617 23.43109131 -0.24055481 C27.40822823 -0.22518814 29.3099683 -0.05196327 32.75097656 2.13989258 C36.12187736 5.65090717 35.90745332 7.93236219 35.95849609 12.7199707 C35.97076233 13.71785614 35.97076233 13.71785614 35.98327637 14.73590088 C36.00812194 16.94111226 36.02464442 19.14625929 36.0390625 21.3515625 C36.04438618 22.1047344 36.04970985 22.8579063 36.05519485 23.6339016 C36.08192332 27.62075152 36.10129878 31.60757017 36.11572266 35.59448242 C36.13236665 39.71062304 36.17714191 43.82596237 36.2280941 47.94180012 C36.26176621 51.10828053 36.27329994 54.27457076 36.27894974 57.44121361 C36.28566284 58.95828561 36.30088675 60.47534507 36.32484055 61.99224281 C36.35649694 64.11829339 36.35652999 66.2421834 36.34912109 68.3684082 C36.36125137 70.18137138 36.36125137 70.18137138 36.37362671 72.03096008 C35.58884511 76.17082777 33.81904595 77.42143548 30.765625 80.23828125 C26.40625107 87.95806556 26.40625107 87.95806556 26.765625 105.23828125 C13.235625 105.23828125 -0.294375 105.23828125 -14.234375 105.23828125 C-14.34730565 92.41665597 -14.43905109 79.59536064 -14.49343586 66.77335072 C-14.51953694 60.81965989 -14.55494529 54.86632675 -14.61157227 48.9128418 C-14.66587235 43.16808745 -14.69579168 37.4236773 -14.70876122 31.67868614 C-14.71800458 29.48617826 -14.73605471 27.29368937 -14.76302528 25.1013279 C-14.79928804 22.03173646 -14.80432138 18.96356977 -14.80200195 15.89379883 C-14.81997833 14.98605209 -14.83795471 14.07830536 -14.85647583 13.14305115 C-14.81929388 8.5996626 -14.7236245 6.83990155 -11.76139832 3.1973114 C-10.92748062 2.55083145 -10.09356293 1.9043515 -9.234375 1.23828125 C-7.17286572 -0.82322803 -2.83853678 0.02587511 0 0 Z " fill="#FEB52D" transform="translate(64.234375,129.76171875)"/>
<path d="M0 0 C1.24526459 -0.01210762 1.24526459 -0.01210762 2.51568604 -0.02445984 C4.27768861 -0.03831882 6.03971823 -0.04903282 7.80175781 -0.05688477 C10.49075736 -0.07405992 13.17851553 -0.11792352 15.8671875 -0.16210938 C17.57811595 -0.17223932 19.28905486 -0.18075448 21 -0.1875 C21.80226013 -0.20500809 22.60452026 -0.22251617 23.43109131 -0.24055481 C27.40822823 -0.22518814 29.3099683 -0.05196327 32.75097656 2.13989258 C36.25772653 5.792403 35.8876006 8.27267889 35.87915039 13.25830078 C35.87929642 13.98035706 35.87944244 14.70241333 35.8795929 15.4463501 C35.87889507 17.83796166 35.87110875 20.22949576 35.86328125 22.62109375 C35.86141661 24.27733314 35.85999292 25.93357309 35.85899353 27.58981323 C35.85517199 31.95295733 35.84534478 36.31606825 35.83428955 40.67919922 C35.82406764 45.12987824 35.81949424 49.58056262 35.81445312 54.03125 C35.8037222 62.76694233 35.78665012 71.50260766 35.765625 80.23828125 C33.77689616 79.91072591 31.78816732 79.58317057 29.79943848 79.25561523 C27.44813262 79.03703484 27.44813262 79.03703484 24.859375 81.30078125 C24.0034375 82.27015625 23.1475 83.23953125 22.265625 84.23828125 C21.32501071 85.26624295 20.3822933 86.29228413 19.4375 87.31640625 C18.55578125 88.280625 17.6740625 89.24484375 16.765625 90.23828125 C15.37251733 91.51448478 13.95873699 92.76890755 12.515625 93.98828125 C9.36196564 96.68042948 6.45102613 99.53132737 3.546875 102.48828125 C1.05574482 104.93570739 -1.59100284 107.18520694 -4.23828125 109.4609375 C-6.91144232 111.84114941 -9.40233056 114.37818964 -11.88671875 116.953125 C-13.234375 118.23828125 -13.234375 118.23828125 -14.234375 118.23828125 C-14.35121945 103.7217485 -14.43903589 89.20528875 -14.49343586 74.68838215 C-14.51920864 67.94777512 -14.55434067 61.20746041 -14.61157227 54.46704102 C-14.66676432 47.96372255 -14.69578679 41.46059388 -14.70876122 34.95705223 C-14.71800886 32.47427778 -14.73606713 29.9915202 -14.76302528 27.50887489 C-14.79925511 24.0346021 -14.80432263 20.56158911 -14.80200195 17.0871582 C-14.81997833 16.05785187 -14.83795471 15.02854553 -14.85647583 13.9680481 C-14.80571859 6.95808273 -14.80571859 6.95808273 -11.76139832 3.12272644 C-10.92748062 2.50085953 -10.09356293 1.87899261 -9.234375 1.23828125 C-7.17286572 -0.82322803 -2.83853678 0.02587511 0 0 Z " fill="#FEC14F" transform="translate(224.234375,49.76171875)"/>
<path d="M0 0 C7.82310531 6.70551884 7.82310531 6.70551884 11.41015625 10.48828125 C12.17263672 11.27654297 12.93511719 12.06480469 13.72070312 12.87695312 C15.2935532 14.51276968 16.85857744 16.1561439 18.41601562 17.80664062 C19.17720703 18.58845703 19.93839844 19.37027344 20.72265625 20.17578125 C21.40078369 20.88645752 22.07891113 21.59713379 22.77758789 22.3293457 C25.53194018 24.3998755 27.59003878 24.76919158 31 25 C33.07709689 23.98438875 33.07709689 23.98438875 34.75 22.1875 C35.44738281 21.55070312 36.14476562 20.91390625 36.86328125 20.2578125 C39.08108768 18.03064138 39.08108768 18.03064138 40.85546875 15.3046875 C44.11254834 11.01487535 46.47480798 8.45565726 51.81152344 7.49267578 C70.54755535 5.91757307 70.54755535 5.91757307 77.19921875 9.9296875 C80.35935527 13.56281626 80.13741987 16.49867572 80.11352539 21.11181641 C80.11367142 21.84362625 80.11381744 22.5754361 80.1139679 23.329422 C80.11327003 25.75349876 80.10548354 28.17749912 80.09765625 30.6015625 C80.09579162 32.28022215 80.09436793 33.95888234 80.09336853 35.63754272 C80.08954688 40.05987038 80.07971959 44.48216528 80.06866455 48.90447998 C80.0566463 54.20833662 80.05204651 59.5122042 80.04621124 64.81607056 C80.03650766 72.87740316 80.01734864 80.93866389 80 89 C66.8 89 53.6 89 40 89 C39.67 82.73 39.34 76.46 39 70 C35.58294328 62.42023811 35.58294328 62.42023811 29.875 58.4375 C25.09832051 55.40030495 25.09832051 55.40030495 24.125 51.4375 C22.71009081 47.11416635 21.52983889 46.82910393 17.5625 44.8125 C11.81640153 42.15751176 5.98736021 40.1772219 0 38 C0 25.46 0 12.92 0 0 Z " fill="#5766CD" transform="translate(260,146)"/>
<path d="M0 0 C0.78012451 -0.0066568 1.56024902 -0.0133136 2.36401367 -0.02017212 C4.00795138 -0.03026481 5.65192978 -0.03499019 7.29589844 -0.03466797 C9.80472306 -0.03904892 12.31179781 -0.07542244 14.8203125 -0.11328125 C16.42186902 -0.11914871 18.02343384 -0.12311858 19.625 -0.125 C20.74394653 -0.14655655 20.74394653 -0.14655655 21.88549805 -0.16854858 C25.57618005 -0.13630103 27.6310645 0.21881548 30.76171875 2.23974609 C34.32510637 5.88203729 33.94983543 8.97039817 33.92602539 13.81494141 C33.92617142 14.58576553 33.92631744 15.35658966 33.9264679 16.15077209 C33.92576989 18.70470979 33.91798275 21.25857501 33.91015625 23.8125 C33.90829167 25.58084066 33.90686796 27.34918183 33.90586853 29.11752319 C33.9020465 33.77658509 33.89221888 38.43561592 33.88116455 43.09466553 C33.87094369 47.84696024 33.86636946 52.59925997 33.86132812 57.3515625 C33.85059634 66.67970117 33.83352367 76.00781675 33.8125 85.3359375 C31.17784688 86.21415521 29.28551953 86.53730052 26.55859375 86.73046875 C14.66834619 87.66348122 3.37270564 89.42648142 -8.1875 92.3359375 C-10.85402697 93.00316376 -13.52078199 93.66947495 -16.1875 94.3359375 C-16.25705102 83.22659476 -16.31033728 72.11730394 -16.34293652 61.0077877 C-16.35858356 55.84902626 -16.37980444 50.69041392 -16.41381836 45.53173828 C-16.44644586 40.55209515 -16.46436025 35.57259533 -16.47213173 30.59285355 C-16.47766913 28.69426849 -16.48848235 26.79569116 -16.50469017 24.89716721 C-16.52650947 22.2351469 -16.52946504 19.57371663 -16.52807617 16.91162109 C-16.538862 16.12902924 -16.54964783 15.34643738 -16.5607605 14.54013062 C-16.5337791 9.75187073 -15.8205272 6.49191096 -13.1875 2.3359375 C-9.12212065 -0.19397654 -4.65973596 0.01390271 0 0 Z " fill="#5766CD" transform="translate(146.1875,89.6640625)"/>
<path d="M0 0 C0.83426514 -0.00630432 1.66853027 -0.01260864 2.52807617 -0.019104 C3.43017822 -0.01505554 4.33228027 -0.01100708 5.26171875 -0.00683594 C6.18637939 -0.00874939 7.11104004 -0.01066284 8.0637207 -0.01263428 C10.02067334 -0.0139966 11.97763499 -0.0102969 13.93457031 -0.00195312 C16.93705465 0.00874572 19.93894062 -0.00184685 22.94140625 -0.01464844 C24.83984508 -0.01332685 26.73828353 -0.01076448 28.63671875 -0.00683594 C29.5388208 -0.0108844 30.44092285 -0.01493286 31.37036133 -0.019104 C32.62175903 -0.00964752 32.62175903 -0.00964752 33.8984375 0 C34.63408936 0.00159119 35.36974121 0.00318237 36.12768555 0.00482178 C37.94921875 0.25878906 37.94921875 0.25878906 39.94921875 2.25878906 C40.20318604 4.08032227 40.20318604 4.08032227 40.20800781 6.30957031 C40.21431213 7.14383545 40.22061646 7.97810059 40.22711182 8.83764648 C40.22103912 10.19079956 40.22103912 10.19079956 40.21484375 11.57128906 C40.2167572 12.49594971 40.21867065 13.42061035 40.22064209 14.37329102 C40.22200441 16.33024365 40.21830471 18.2872053 40.20996094 20.24414062 C40.19926209 23.24662496 40.20985466 26.24851093 40.22265625 29.25097656 C40.22133466 31.14941539 40.21877229 33.04785384 40.21484375 34.94628906 C40.21889221 35.84839111 40.22294067 36.75049316 40.22711182 37.67993164 C40.21765533 38.93132935 40.21765533 38.93132935 40.20800781 40.20800781 C40.20641663 40.94365967 40.20482544 41.67931152 40.20318604 42.43725586 C39.94921875 44.25878906 39.94921875 44.25878906 37.94921875 46.25878906 C34.94921875 46.50878906 34.94921875 46.50878906 31.94921875 46.25878906 C29.30930607 43.61887638 29.64681078 42.2793261 29.53515625 38.59472656 C29.49648438 37.47324219 29.4578125 36.35175781 29.41796875 35.19628906 C29.3715625 33.43285156 29.3715625 33.43285156 29.32421875 31.63378906 C29.28554688 30.45042969 29.246875 29.26707031 29.20703125 28.04785156 C29.1125303 25.11832216 29.02697317 22.18880309 28.94921875 19.25878906 C28.47029867 19.74231811 27.99137859 20.22584715 27.49794579 20.72402859 C15.84363224 32.48876627 4.17551743 44.23962021 -7.50814247 55.97521114 C-13.15794534 61.65079502 -18.80297743 67.33097589 -24.43701172 73.0222168 C-29.34768117 77.98272411 -34.26707831 82.93437788 -39.1971525 87.87560278 C-41.80728457 90.49225291 -44.41283691 93.11312272 -47.00798416 95.74464226 C-49.90533627 98.68227049 -52.82200215 101.59995905 -55.74072266 104.51635742 C-56.59812042 105.39173157 -57.45551819 106.26710571 -58.33889771 107.16900635 C-59.53766541 108.35746407 -59.53766541 108.35746407 -60.76065063 109.56993103 C-61.4483082 110.26219756 -62.13596577 110.95446409 -62.84446144 111.6677084 C-65.59051532 113.64801661 -67.69909146 114.0224161 -71.05078125 114.25878906 C-73.03515625 113.17016602 -73.03515625 113.17016602 -74.80078125 111.43457031 C-75.81591797 110.46124756 -75.81591797 110.46124756 -76.8515625 109.46826172 C-77.57730469 108.73913574 -78.30304688 108.01000977 -79.05078125 107.25878906 C-79.84871094 106.48970215 -80.64664063 105.72061523 -81.46875 104.92822266 C-84.02064745 102.45792658 -86.53840969 99.956731 -89.05078125 97.44628906 C-89.92089844 96.58841797 -90.79101562 95.73054688 -91.6875 94.84667969 C-92.50863281 94.02748047 -93.32976562 93.20828125 -94.17578125 92.36425781 C-95.29339844 91.25280396 -95.29339844 91.25280396 -96.43359375 90.11889648 C-98.05078125 88.25878906 -98.05078125 88.25878906 -98.05078125 86.25878906 C-100.69817041 84.79816056 -101.94526459 84.25878906 -105.05078125 84.25878906 C-106.67655164 85.55657624 -106.67655164 85.55657624 -108.23828125 87.32128906 C-110.74511583 89.94422967 -113.29459396 92.39863645 -116.05078125 94.75878906 C-119.27753688 97.53876314 -122.2789127 100.46369004 -125.26171875 103.50097656 C-127.75676448 105.95244071 -130.3950829 108.21970956 -133.05859375 110.48535156 C-135.20238859 112.3070105 -135.20238859 112.3070105 -137.3046875 114.95019531 C-140.81443471 117.90077939 -143.50047429 117.84265983 -147.86328125 117.57128906 C-148.55615234 117.54873047 -149.24902344 117.52617187 -149.96289062 117.50292969 C-151.65979698 117.44441568 -153.35557986 117.35474386 -155.05078125 117.25878906 C-151.33777644 112.71035817 -147.5243841 108.80845525 -143.0546875 105.00878906 C-141.13111411 103.3289433 -139.33764629 101.58228687 -137.55078125 99.75878906 C-134.51245708 96.66522263 -131.30312805 93.837734 -128.01953125 91.00878906 C-125.5144275 88.78203017 -123.18734951 86.40698414 -120.83984375 84.01660156 C-118.29776526 81.51892619 -115.60736489 79.21202317 -112.890625 76.90722656 C-110.82843503 75.13304782 -110.82843503 75.13304782 -108.48828125 72.25878906 C-106.05078125 70.25878906 -106.05078125 70.25878906 -102.83764648 70.2355957 C-97.85794158 71.58108879 -95.53071378 73.97782927 -92.0234375 77.62988281 C-91.38965683 78.26740982 -90.75587616 78.90493683 -90.10289001 79.56178284 C-88.77236195 80.90570917 -87.44902567 82.25678952 -86.13256836 83.61450195 C-84.10973447 85.69994562 -82.06604529 87.76300082 -80.01757812 89.82324219 C-78.72660307 91.1325464 -77.4368453 92.44305223 -76.1484375 93.75488281 C-75.22986717 94.68620277 -75.22986717 94.68620277 -74.29273987 95.63633728 C-70.05078125 100.02436838 -70.05078125 100.02436838 -70.05078125 102.25878906 C-64.25851085 97.32619785 -58.79715882 92.14418498 -53.43164062 86.75317383 C-52.20093842 85.52269066 -52.20093842 85.52269066 -50.94537354 84.26734924 C-48.25937961 81.58066387 -45.57693581 78.89046392 -42.89453125 76.20019531 C-41.02288293 74.32668008 -39.15103804 72.45336332 -37.27893066 70.58030701 C-32.87143648 66.16971886 -28.46649511 61.75659046 -24.06249094 57.34251779 C-19.04384046 52.31264573 -14.02231146 47.28565157 -9.00055218 42.2588836 C1.31921836 31.92869253 11.63541346 21.59493588 21.94921875 11.25878906 C21.1720752 11.23896973 20.39493164 11.21915039 19.59423828 11.19873047 C16.08721184 11.10371898 12.58080081 10.99394347 9.07421875 10.88378906 C7.85089844 10.85285156 6.62757813 10.82191406 5.3671875 10.79003906 C4.20058594 10.75136719 3.03398437 10.71269531 1.83203125 10.67285156 C0.75324707 10.64143066 -0.32553711 10.61000977 -1.43701172 10.57763672 C-4.05078125 10.25878906 -4.05078125 10.25878906 -6.05078125 8.25878906 C-6.30078125 5.25878906 -6.30078125 5.25878906 -6.05078125 2.25878906 C-3.68031594 -0.11167625 -3.21673953 0.00695768 0 0 Z " fill="#FCF3F3" transform="translate(358.05078125,57.7412109375)"/>
<path d="M0 0 C0.86032837 -0.0049649 1.72065674 -0.00992981 2.60705566 -0.01504517 C5.4615966 -0.02968522 8.31608194 -0.03647217 11.1706543 -0.04199219 C13.15121971 -0.04774252 15.1317851 -0.05350027 17.11235046 -0.05926514 C21.26940165 -0.06978064 25.42643347 -0.07561958 29.58349609 -0.07910156 C34.91006386 -0.0845847 40.2363758 -0.10860662 45.56286335 -0.13707352 C49.65580492 -0.1556992 53.7486849 -0.16090548 57.84166527 -0.16243744 C59.80526311 -0.16546511 61.76885984 -0.17349746 63.73241615 -0.18662262 C66.48066263 -0.20368012 69.22828454 -0.20180349 71.9765625 -0.1953125 C73.19320839 -0.20913467 73.19320839 -0.20913467 74.43443298 -0.22323608 C79.0335301 -0.18921427 82.02150106 0.30795817 85.68237305 3.16113281 C88.17870031 6.54738943 87.9817275 9.99284176 87.99487305 14.09863281 C88.01163086 15.30390625 88.02838867 16.50917969 88.0456543 17.75097656 C87.65442428 21.42349057 86.90701186 23.24878364 84.68237305 26.16113281 C80.80615866 28.74527574 77.56501263 28.46393759 73.06762695 28.4675293 C72.18764542 28.47585281 71.30766388 28.48417633 70.40101624 28.49275208 C67.48694456 28.51688183 64.57309658 28.52562775 61.65893555 28.53222656 C59.63495821 28.54119051 57.61098156 28.55031231 55.58700562 28.55958557 C51.34176013 28.57608613 47.09659362 28.58377765 42.85131836 28.58666992 C37.41135284 28.59205532 31.97212933 28.62973753 26.53237343 28.67541409 C22.35105682 28.70515555 18.16991952 28.71239285 13.98850632 28.71339607 C11.98302181 28.71760403 9.97753704 28.7300613 7.97215652 28.75091362 C5.16618532 28.777768 2.36194226 28.77302049 -0.4440918 28.76049805 C-1.27231949 28.77533234 -2.10054718 28.79016663 -2.95387268 28.80545044 C-7.26318256 28.75068197 -8.83199521 28.55268687 -12.3097229 25.74867249 C-16.61854222 20.19599634 -16.02847517 13.96827718 -15.31762695 7.16113281 C-12.0225563 0.1652552 -6.96011672 0.00952119 0 0 Z " fill="#FEC04E" transform="translate(159.317626953125,375.8388671875)"/>
<path d="M0 0 C0.33 0 0.66 0 1 0 C1.00808685 1.19381287 1.01617371 2.38762573 1.02450562 3.61761475 C1.10193772 14.85959936 1.18966966 26.1014625 1.28752708 37.34328842 C1.33750629 43.12304019 1.38383629 48.90277353 1.421875 54.68261719 C1.45870712 60.25884578 1.50506162 65.83492084 1.55806351 71.41101837 C1.57661845 73.54007529 1.59172232 75.66916513 1.60334396 77.79827118 C1.62018743 80.7768074 1.6492182 83.75499116 1.68115234 86.73339844 C1.68331253 87.61668823 1.68547272 88.49997803 1.68769836 89.41003418 C1.69886185 90.22329163 1.71002533 91.03654907 1.7215271 91.87445068 C1.72705786 92.57870052 1.73258862 93.28295036 1.73828697 94.00854111 C2.05249252 96.39943254 2.72070371 97.95859207 4 100 C7.83594544 102.55729696 10.99648099 102.29474578 15.4375 102.25 C16.20126953 102.25773437 16.96503906 102.26546875 17.75195312 102.2734375 C23.19927984 102.31763963 23.19927984 102.31763963 28 100 C29.01836404 98.68063937 30.02049787 97.34846333 31 96 C33.93500902 131.70617758 33.93500902 131.70617758 27.8828125 138.99609375 C24.46510794 141.93109287 20.64330502 143.91956204 16.55517578 145.77246094 C12.86524369 147.54515142 9.55934594 149.81092722 6.15551758 152.07373047 C3.74495979 153.67053604 1.31331545 155.21788726 -1.1484375 156.734375 C-1.82052246 157.14913086 -2.49260742 157.56388672 -3.18505859 157.99121094 C-5 159 -5 159 -8 160 C-8.14027337 140.71107847 -8.24602151 121.4222607 -8.31087303 102.13293457 C-8.34178757 93.17617728 -8.38392182 84.21973723 -8.45263672 75.26318359 C-8.5125127 67.45499296 -8.55116662 59.64703212 -8.56453097 51.83861828 C-8.57234101 47.70546705 -8.59064506 43.57297313 -8.63438034 39.44003296 C-8.67525172 35.54600386 -8.68764028 31.65289976 -8.67864609 27.75867653 C-8.68029031 26.33325986 -8.69213997 24.90781073 -8.71523285 23.48258018 C-8.83264135 15.85945159 -8.7944437 10.32955578 -3.48386574 4.53018188 C-2.99419004 4.02522186 -2.50451435 3.52026184 -2 3 C-1.34 2.01 -0.68 1.02 0 0 Z " fill="#3D4EC5" transform="translate(389,320)"/>
<path d="M0 0 C0.75087891 -0.02449219 1.50175781 -0.04898438 2.27539062 -0.07421875 C6.22485751 -0.09506026 8.12023611 0.09255552 11.53515625 2.2734375 C14.92098401 5.78321656 14.70424006 8.06080264 14.75537109 12.85668945 C14.76354858 13.52194641 14.77172607 14.18720337 14.78015137 14.87261963 C14.80499694 17.07783101 14.82151942 19.28297804 14.8359375 21.48828125 C14.84126118 22.24145315 14.84658485 22.99462505 14.85206985 23.77062035 C14.87879832 27.75747027 14.89817378 31.74428892 14.91259766 35.73120117 C14.92924165 39.84734179 14.97401691 43.96268112 15.0249691 48.07851887 C15.05864121 51.24499928 15.07017494 54.41128951 15.07582474 57.57793236 C15.08253784 59.09500436 15.09776175 60.61206382 15.12171555 62.12896156 C15.15337194 64.25501214 15.15340499 66.37890215 15.14599609 68.50512695 C15.15812637 70.31809013 15.15812637 70.31809013 15.17050171 72.16767883 C14.38968048 76.28665486 12.65234164 77.64386571 9.5625 80.375 C7.76929176 83.54145474 7.76929176 83.54145474 6.5625 86.375 C3.99821485 86.51059675 1.44114784 86.60933188 -1.125 86.6875 C-1.84623047 86.72939453 -2.56746094 86.77128906 -3.31054688 86.81445312 C-7.57574957 86.91183218 -8.96998094 86.76346696 -12.39453125 83.91796875 C-13.06871094 83.07878906 -13.74289063 82.23960937 -14.4375 81.375 C-14.7675 81.045 -15.0975 80.715 -15.4375 80.375 C-15.54768246 78.16786717 -15.58664568 75.95716327 -15.59863281 73.74731445 C-15.60608017 72.70816643 -15.60608017 72.70816643 -15.61367798 71.64802551 C-15.62834051 69.34476747 -15.63511015 67.0415784 -15.640625 64.73828125 C-15.64637537 63.13982643 -15.65213311 61.54137164 -15.65789795 59.94291687 C-15.66842112 56.58441851 -15.6742544 53.22594418 -15.67773438 49.86743164 C-15.68320624 45.57110783 -15.7072004 41.27510301 -15.73570633 36.97887897 C-15.75436938 33.67338652 -15.75954037 30.36797011 -15.76107025 27.06242943 C-15.76409165 25.47924248 -15.77210288 23.89605672 -15.78525543 22.31292152 C-15.80238469 20.09159098 -15.80041878 17.87102871 -15.79394531 15.6496582 C-15.79759094 14.38692581 -15.80123657 13.12419342 -15.80499268 11.82319641 C-15.34728633 7.528522 -14.21657008 3.82337235 -10.77734375 1.0234375 C-7.205947 0.03370151 -3.67663638 0.00627948 0 0 Z " fill="#FEC04F" transform="translate(85.4375,129.625)"/>
<path d="M0 0 C0.89267578 0.00644531 1.78535156 0.01289063 2.70507812 0.01953125 C4.09823242 0.04466797 4.09823242 0.04466797 5.51953125 0.0703125 C6.45990234 0.07933594 7.40027344 0.08835938 8.36914062 0.09765625 C10.69036093 0.12122194 13.01106769 0.15412134 15.33203125 0.1953125 C14.69265625 0.9790625 14.05328125 1.7628125 13.39453125 2.5703125 C10.64370811 6.07136014 10.20544503 7.66421137 10.17381287 12.02944946 C10.15912964 13.56074242 10.15912964 13.56074242 10.14414978 15.12297058 C10.13839432 16.24721939 10.13263885 17.3714682 10.12670898 18.52978516 C10.11185959 20.30049629 10.11185959 20.30049629 10.09671021 22.10697937 C10.07048968 25.34848032 10.04864114 28.58997593 10.02870822 31.83152056 C10.00686277 35.21749065 9.97946705 38.60341564 9.95265198 41.98934937 C9.90270556 48.40308978 9.85777398 54.8168552 9.81462961 61.23064458 C9.76527387 68.53167004 9.71034959 75.83265024 9.65495002 83.13363194 C9.54110007 98.15414997 9.43426761 113.1747106 9.33203125 128.1953125 C7.33203125 125.1953125 7.33203125 125.1953125 6.140625 122.99609375 C1.91800882 115.33282735 -3.40676305 110.0361163 -10.66796875 105.1953125 C-10.96993934 102.08221895 -11.07714633 99.16750164 -11.05615234 96.05151367 C-11.0614093 95.10340317 -11.06666626 94.15529266 -11.07208252 93.17845154 C-11.0853293 90.03156245 -11.07652573 86.88517586 -11.06640625 83.73828125 C-11.06842614 81.55593264 -11.07133687 79.37358469 -11.07510376 77.1912384 C-11.07953387 72.61041864 -11.07307578 68.02977405 -11.05908203 63.44897461 C-11.04202019 57.57756891 -11.05180812 51.70657549 -11.06979942 45.83518505 C-11.08064454 41.32531128 -11.07718701 36.81553507 -11.06941605 32.30565834 C-11.06741449 30.14111597 -11.06987176 27.97656474 -11.07685471 25.8120327 C-11.0844776 22.78354866 -11.07285142 19.75572949 -11.05615234 16.72729492 C-11.06222504 15.83204102 -11.06829773 14.93678711 -11.07455444 14.0144043 C-11.02607166 9.26571815 -10.80246533 6.01958697 -7.66796875 2.1953125 C-4.46390413 0.05926942 -3.67196128 -0.04677658 0 0 Z " fill="#3D4EC5" transform="translate(380.66796875,134.8046875)"/>
<path d="M0 0 C1.04800781 -0.03673828 1.04800781 -0.03673828 2.1171875 -0.07421875 C5.79823058 -0.09505484 7.82060837 0.25906339 10.9375 2.2734375 C14.26673008 5.66572118 14.13265612 7.73737658 14.16113281 12.39770508 C14.17074036 13.66274368 14.1803479 14.92778229 14.19024658 16.2311554 C14.19509487 17.61894552 14.19937362 19.00673773 14.203125 20.39453125 C14.20887714 21.81459048 14.21463486 23.23464968 14.22039795 24.65470886 C14.23090925 27.63479983 14.23675077 30.61486381 14.24023438 33.5949707 C14.24571334 37.40822923 14.2697276 41.22112965 14.29820633 45.03427601 C14.31685967 47.96914195 14.32203978 50.90392219 14.32357025 53.83884239 C14.32659226 55.24422853 14.33460559 56.64961331 14.34775543 58.05494118 C14.36486702 60.02459236 14.36108348 61.99439128 14.35644531 63.96411133 C14.36009094 65.08392899 14.36373657 66.20374664 14.36749268 67.35749817 C13.94994714 70.78598671 13.05926629 72.62433635 11 75.375 C6.95842649 78.06938234 3.86896317 77.74245793 -0.875 77.75 C-1.67808594 77.77449219 -2.48117187 77.79898438 -3.30859375 77.82421875 C-7.34922972 77.84418894 -9.48600856 77.68873504 -13.0078125 75.5390625 C-16.23685113 72.03144015 -16.13208123 69.01919151 -16.16113281 64.43823242 C-16.17074036 63.21653854 -16.1803479 61.99484467 -16.19024658 60.73612976 C-16.1950951 59.40091133 -16.19937379 58.06569072 -16.203125 56.73046875 C-16.20887978 55.3590749 -16.21463747 53.98768106 -16.22039795 52.61628723 C-16.23089922 49.74052558 -16.23674737 46.8647918 -16.24023438 43.98901367 C-16.24571271 40.31375988 -16.26972982 36.63887776 -16.29820633 32.96374035 C-16.31688179 30.13006025 -16.32204094 27.29646874 -16.32357025 24.46273232 C-16.32804916 22.45201448 -16.34667271 20.44134415 -16.36553955 18.43070984 C-16.36253845 17.19955948 -16.35953735 15.96840912 -16.35644531 14.69995117 C-16.36009094 13.62090012 -16.36373657 12.54184906 -16.36749268 11.43009949 C-15.93722538 7.85313192 -14.84733921 5.4521003 -13 2.375 C-8.98369184 -0.10650468 -4.6033508 0.00849327 0 0 Z " fill="#FEC04F" transform="translate(486,249.625)"/>
<path d="M0 0 C0.87454834 0.00523682 1.74909668 0.01047363 2.65014648 0.01586914 C3.59438477 0.0190918 4.53862305 0.02231445 5.51147461 0.02563477 C6.50469727 0.03401367 7.49791992 0.04239258 8.52124023 0.05102539 C9.51833008 0.05553711 10.51541992 0.06004883 11.54272461 0.06469727 C14.01478872 0.07652532 16.48673541 0.0930069 18.95874023 0.11352539 C18.15436523 0.87665039 17.34999023 1.63977539 16.52124023 2.42602539 C12.46386974 6.6813164 12.81461765 10.50196029 12.8293457 16.06982422 C12.82759338 16.87992447 12.82584106 17.69002472 12.82403564 18.52467346 C12.81962939 21.20665623 12.82255165 23.88857318 12.82592773 26.57055664 C12.82525415 28.43519605 12.82428366 30.29983538 12.82302856 32.16447449 C12.82155309 36.07596674 12.82370061 39.98743618 12.82836914 43.89892578 C12.83405449 48.90578697 12.83079405 53.91259442 12.82479668 58.91945362 C12.82117691 62.77223615 12.82233637 66.62500601 12.82492447 70.47778893 C12.82559043 72.32332045 12.82477688 74.16885314 12.82244492 76.01438332 C12.8198965 78.59930064 12.82379036 81.18413202 12.8293457 83.76904297 C12.82732147 84.52822021 12.82529724 85.28739746 12.82321167 86.06958008 C12.83602832 89.29985701 12.99451915 92.3179352 13.55230713 95.50465393 C13.95874023 98.11352539 13.95874023 98.11352539 12.59106445 100.19995117 C11.56263428 101.1201001 11.56263428 101.1201001 10.51342773 102.05883789 C9.39194336 103.08557617 9.39194336 103.08557617 8.24780273 104.13305664 C7.45116211 104.82786133 6.65452148 105.52266602 5.83374023 106.23852539 C5.06030273 106.94106445 4.28686523 107.64360352 3.48999023 108.36743164 C-0.25697295 111.74992912 -4.09387943 114.96734173 -8.04125977 118.11352539 C-8.15810422 103.59699264 -8.24592065 89.08053289 -8.30032063 74.56362629 C-8.3260934 67.82301926 -8.36122544 61.08270455 -8.41845703 54.34228516 C-8.47364908 47.83896669 -8.50267155 41.33583802 -8.51564598 34.83229637 C-8.52489362 32.34952192 -8.5429519 29.86676434 -8.56991005 27.38411903 C-8.60613987 23.90984624 -8.61120739 20.43683325 -8.60888672 16.96240234 C-8.6268631 15.93309601 -8.64483948 14.90378967 -8.6633606 13.84329224 C-8.61260336 6.83332687 -8.61260336 6.83332687 -5.56828308 2.99797058 C-4.73436539 2.37610367 -3.90044769 1.75423676 -3.04125977 1.11352539 C-2.04125977 0.11352539 -2.04125977 0.11352539 0 0 Z " fill="#FEB52D" transform="translate(218.041259765625,49.886474609375)"/>
<path d="M0 0 C0.33 0 0.66 0 1 0 C1.58652247 9.60518984 2.0268327 19.20400034 2.2953043 28.82335567 C2.42437593 33.29413657 2.59819618 37.7524652 2.88598633 42.21606445 C4.86926097 73.79592038 4.86926097 73.79592038 -4.50048828 84.97705078 C-11.56434188 92.83449344 -19.84474112 99.72486917 -29 105 C-29.18629492 97.35018575 -29.327974 89.70060984 -29.41449738 82.04903603 C-29.45605098 78.49492254 -29.51229697 74.94237338 -29.60351562 71.38916016 C-29.70799714 67.2931519 -29.74605112 63.19875651 -29.78125 59.1015625 C-29.82254028 57.8407486 -29.86383057 56.57993469 -29.90637207 55.28091431 C-29.91103987 46.00716893 -27.35733013 41.57467139 -21 35 C-19.2821037 32.7252363 -17.69577258 30.37818862 -16.125 28 C-15.71644775 27.38552002 -15.30789551 26.77104004 -14.88696289 26.13793945 C-9.41526967 17.759963 -4.47526055 8.95052109 0 0 Z " fill="#60C8DD" transform="translate(449,348)"/>
<path d="M0 0 C0.75087891 -0.02449219 1.50175781 -0.04898438 2.27539062 -0.07421875 C6.22485751 -0.09506026 8.12023611 0.09255552 11.53515625 2.2734375 C14.50812958 5.35524801 14.69149378 7.03169934 14.72363281 11.2043457 C14.73324036 12.20911453 14.7428479 13.21388336 14.75274658 14.24909973 C14.75699646 15.33865463 14.76124634 16.42820953 14.765625 17.55078125 C14.77132507 18.66809128 14.77702515 19.78540131 14.78289795 20.93656921 C14.79235742 23.30462698 14.79888567 25.67269796 14.80273438 28.04077148 C14.8124322 31.66218086 14.84344419 35.28302099 14.875 38.90429688 C14.88153067 41.20312162 14.88678089 43.50195044 14.890625 45.80078125 C14.9029718 46.88426346 14.9153186 47.96774567 14.92803955 49.08406067 C14.90029541 58.46023179 14.90029541 58.46023179 11.5625 62.375 C7.95759347 65.16562176 3.49667056 64.77890048 -0.875 64.8125 C-1.62587891 64.84537109 -2.37675781 64.87824219 -3.15039062 64.91210938 C-7.46318649 64.95383387 -8.95813512 64.772476 -12.41015625 61.91015625 C-13.07917969 61.07355469 -13.74820312 60.23695313 -14.4375 59.375 C-14.7675 59.045 -15.0975 58.715 -15.4375 58.375 C-15.54635129 56.84186913 -15.58654164 55.30378834 -15.59863281 53.7668457 C-15.60824036 52.78524979 -15.6178479 51.80365387 -15.62774658 50.79231262 C-15.63199646 49.72260727 -15.63624634 48.65290192 -15.640625 47.55078125 C-15.64917511 45.90954536 -15.64917511 45.90954536 -15.65789795 44.2351532 C-15.66736716 41.91239392 -15.67388952 39.5896211 -15.67773438 37.2668457 C-15.6874114 33.7199738 -15.71840545 30.17368815 -15.75 26.62695312 C-15.75653259 24.37239928 -15.76178205 22.11784128 -15.765625 19.86328125 C-15.7779718 18.80369705 -15.7903186 17.74411285 -15.80303955 16.65242004 C-15.78646942 11.14566052 -15.60308999 7.10654415 -12.4375 2.375 C-8.91416988 -0.49340522 -4.3443486 0.0074199 0 0 Z " fill="#707DD5" transform="translate(325.4375,153.625)"/>
<path d="M0 0 C0.75087891 -0.02449219 1.50175781 -0.04898438 2.27539062 -0.07421875 C6.22485751 -0.09506026 8.12023611 0.09255552 11.53515625 2.2734375 C14.50812958 5.35524801 14.69149378 7.03169934 14.72363281 11.2043457 C14.73324036 12.20911453 14.7428479 13.21388336 14.75274658 14.24909973 C14.75699646 15.33865463 14.76124634 16.42820953 14.765625 17.55078125 C14.77132507 18.66809128 14.77702515 19.78540131 14.78289795 20.93656921 C14.79235742 23.30462698 14.79888567 25.67269796 14.80273438 28.04077148 C14.8124322 31.66218086 14.84344419 35.28302099 14.875 38.90429688 C14.88153067 41.20312162 14.88678089 43.50195044 14.890625 45.80078125 C14.9029718 46.88426346 14.9153186 47.96774567 14.92803955 49.08406067 C14.90029541 58.46023179 14.90029541 58.46023179 11.5625 62.375 C7.95759347 65.16562176 3.49667056 64.77890048 -0.875 64.8125 C-1.62587891 64.84537109 -2.37675781 64.87824219 -3.15039062 64.91210938 C-7.46318649 64.95383387 -8.95813512 64.772476 -12.41015625 61.91015625 C-13.07917969 61.07355469 -13.74820313 60.23695313 -14.4375 59.375 C-14.7675 59.045 -15.0975 58.715 -15.4375 58.375 C-15.54635129 56.84186913 -15.58654164 55.30378834 -15.59863281 53.7668457 C-15.60824036 52.78524979 -15.6178479 51.80365387 -15.62774658 50.79231262 C-15.63199646 49.72260727 -15.63624634 48.65290192 -15.640625 47.55078125 C-15.64917511 45.90954536 -15.64917511 45.90954536 -15.65789795 44.2351532 C-15.66736716 41.91239392 -15.67388952 39.5896211 -15.67773438 37.2668457 C-15.6874114 33.7199738 -15.71840545 30.17368815 -15.75 26.62695312 C-15.75653259 24.37239928 -15.76178205 22.11784128 -15.765625 19.86328125 C-15.7779718 18.80369705 -15.7903186 17.74411285 -15.80303955 16.65242004 C-15.78646942 11.14566052 -15.60308999 7.10654415 -12.4375 2.375 C-8.91416988 -0.49340522 -4.3443486 0.0074199 0 0 Z " fill="#707DD5" transform="translate(165.4375,89.625)"/>
<path d="M0 0 C-1.1446875 1.11375 -1.1446875 1.11375 -2.3125 2.25 C-7.06772995 7.11581669 -9.13563527 10.42202532 -9.25 17.3125 C-9.1947371 21.96686447 -8.75330499 25.10739639 -6 29 C-3.61881834 31.22168366 -3.61881834 31.22168366 -1 33 C0.33535898 33.99729342 1.6690441 34.99683791 3 36 C-3.90507881 36.05068981 -10.81010966 36.08572927 -17.71533203 36.10986328 C-20.06463413 36.11992384 -22.41392369 36.13357373 -24.76318359 36.15087891 C-28.13902885 36.17512452 -31.5147086 36.18648259 -34.890625 36.1953125 C-35.94179504 36.20563507 -36.99296509 36.21595764 -38.07598877 36.22659302 C-39.05670349 36.22674408 -40.03741821 36.22689514 -41.04785156 36.22705078 C-42.3402475 36.23371262 -42.3402475 36.23371262 -43.65875244 36.24050903 C-46.20442265 35.9790003 -47.75504768 35.17621464 -50 34 C-53.78418028 34.08051447 -55.59946005 34.70018755 -58.640625 36.9765625 C-61.84695908 41.0853416 -61.77645084 44.23757999 -61.8125 49.3125 C-61.83763672 50.14845703 -61.86277344 50.98441406 -61.88867188 51.84570312 C-61.9472699 53.89663409 -61.97656493 55.94836593 -62 58 C-64.97 58 -67.94 58 -71 58 C-71.17605097 54.50064848 -71.28142307 51.00245076 -71.375 47.5 C-71.42527344 46.51773438 -71.47554688 45.53546875 -71.52734375 44.5234375 C-71.65467619 38.15681566 -70.75763736 34.48027736 -66.66552734 29.54711914 C-64.94490779 27.94882449 -63.34326398 26.9846764 -61.25 25.9375 C-57.66667487 24.28660988 -57.66667487 24.28660988 -56.875 20.5 C-56.58625 19.345 -56.2975 18.19 -56 17 C-52.1115182 13.17111179 -47.7848216 11.44136639 -42.75 9.625 C-41.93950195 9.32972412 -41.12900391 9.03444824 -40.29394531 8.73022461 C-33.21843079 6.24955293 -26.03249278 4.33232754 -18.75 2.5625 C-17.69135742 2.30355957 -16.63271484 2.04461914 -15.54199219 1.77783203 C-10.23949586 0.54408289 -5.44478373 -0.31530527 0 0 Z " fill="#AD583F" transform="translate(163,177)"/>
<path d="M0 0 C0.80179688 0.00451172 1.60359375 0.00902344 2.4296875 0.01367188 C4.41149006 0.02546832 6.39325433 0.04340395 8.375 0.0625 C7.10546875 1.52734375 5.8359375 2.9921875 4.56640625 4.45703125 C3.16628769 6.16962971 3.16628769 6.16962971 2.375 9.0625 C3.71803947 9.05583817 3.71803947 9.05583817 5.08821106 9.04904175 C13.51961571 9.00899392 21.95098848 8.97853031 30.38246632 8.95887566 C34.71733973 8.94843138 39.05213465 8.93426047 43.38696289 8.91162109 C47.56907105 8.88991562 51.75110364 8.87793622 55.93326378 8.87274551 C57.53008909 8.86904562 59.12691018 8.8618208 60.72370338 8.85103989 C62.95757665 8.83655535 65.19113628 8.83452076 67.42504883 8.83544922 C68.69745926 8.831008 69.96986969 8.82656677 71.28083801 8.82199097 C74.375 9.0625 74.375 9.0625 77.375 11.0625 C77.6875 14.0625 77.6875 14.0625 77.375 17.0625 C75.375 19.0625 75.375 19.0625 72.36312866 19.30300903 C70.42453476 19.2963472 70.42453476 19.2963472 68.44677734 19.28955078 C67.37832329 19.28998886 67.37832329 19.28998886 66.2882843 19.29043579 C63.92904566 19.28904016 61.57012111 19.27346827 59.2109375 19.2578125 C57.57711968 19.25408319 55.94329962 19.25123583 54.30947876 19.24923706 C50.00547124 19.2415941 45.70159832 19.22193999 41.39764404 19.1998291 C37.00730205 19.1793849 32.61693835 19.1702384 28.2265625 19.16015625 C19.60931318 19.13869466 10.99217332 19.10455081 2.375 19.0625 C4.73178823 24.03284552 4.73178823 24.03284552 8.375 28.0625 C5.47759378 28.19789281 2.58654379 28.29676829 -0.3125 28.375 C-1.12912109 28.41689453 -1.94574219 28.45878906 -2.78710938 28.50195312 C-7.25429507 28.59238199 -9.02445109 28.53874383 -12.64453125 25.66796875 C-16.89685143 20.07369348 -16.33690953 13.87980759 -15.625 7.0625 C-12.26387234 -0.07362551 -7.08289674 -0.07473836 0 0 Z " fill="#FE9305" transform="translate(159.625,375.9375)"/>
<path d="M0 0 C16.5 0 33 0 50 0 C50 7.26 50 14.52 50 22 C33.5 22 17 22 0 22 C0 14.74 0 7.48 0 0 Z " fill="#FEB42D" transform="translate(210,213)"/>
<path d="M0 0 C0.99 0.33 1.98 0.66 3 1 C4.45706917 1.11349848 5.91844959 1.17601475 7.37963867 1.20532227 C8.70066841 1.2352401 8.70066841 1.2352401 10.04838562 1.26576233 C10.99534805 1.28247482 11.94231049 1.29918732 12.91796875 1.31640625 C13.89034988 1.33718735 14.86273102 1.35796844 15.86457825 1.37937927 C18.97214665 1.44478748 22.07979985 1.50371929 25.1875 1.5625 C27.29362858 1.60569351 29.39974856 1.64930807 31.50585938 1.69335938 C36.67048591 1.80045999 41.83519778 1.90175219 47 2 C46.06512122 3.10682275 45.12788751 4.21165661 44.18969727 5.31567383 C43.66803482 5.93114578 43.14637238 6.54661774 42.60890198 7.18074036 C40.22282642 9.878786 37.61622047 12.28529261 34.9375 14.6875 C34.43412109 15.14705078 33.93074219 15.60660156 33.41210938 16.08007812 C31.95480402 17.40164482 30.47770848 18.70128716 29 20 C28.28763184 20.70455322 27.57526367 21.40910645 26.84130859 22.13500977 C23.10904702 24.58480751 19.94686255 24.507455 15.63671875 24.390625 C14.84473587 24.38496521 14.05275299 24.37930542 13.23677063 24.37347412 C10.71971906 24.35117308 8.20411757 24.30099139 5.6875 24.25 C3.97593209 24.22992675 2.26434176 24.21167742 0.55273438 24.1953125 C-3.63206485 24.15132925 -7.815787 24.08234769 -12 24 C-12.13530844 20.93601549 -12.2342407 17.87802874 -12.3125 14.8125 C-12.35439453 13.94818359 -12.39628906 13.08386719 -12.43945312 12.19335938 C-12.52726393 7.60963541 -12.52442341 5.66814794 -9.60546875 1.94921875 C-5.75723504 -0.9297447 -4.61227783 -1.12494581 0 0 Z " fill="#7CD1E2" transform="translate(114,211)"/>
<path d="M0 0 C2.96337891 1.42871094 2.96337891 1.42871094 6 4 C6.85482937 7.04477632 6.69982798 9.99872913 6.5859375 13.140625 C6.57744781 14.02280701 6.56895813 14.90498901 6.56021118 15.81390381 C6.52666558 18.62718675 6.45138774 21.43758606 6.375 24.25 C6.34490173 26.15881272 6.31752568 28.06767045 6.29296875 29.9765625 C6.2268708 34.65215004 6.12334379 39.32558645 6 44 C4.94506348 43.73082764 3.89012695 43.46165527 2.80322266 43.18432617 C-11.740791 39.49512612 -25.97567681 36.6904998 -41 36 C-41 35.67 -41 35.34 -41 35 C-39.66582031 34.65001953 -39.66582031 34.65001953 -38.3046875 34.29296875 C-34.5741218 32.8333739 -32.84335244 31.22247401 -30.125 28.3125 C-27.11435488 25.17095727 -24.12121166 22.13936045 -20.8125 19.3125 C-17.64696878 16.60371878 -14.71848693 13.74089589 -11.80078125 10.76953125 C-9.20427379 8.21808249 -6.46038441 5.85105695 -3.69921875 3.48046875 C-2.42270555 2.36828828 -1.19716986 1.19716986 0 0 Z " fill="#FEB42E" transform="translate(254,140)"/>
<path d="M0 0 C0.74617584 0.00707474 1.49235168 0.01414948 2.26113892 0.0214386 C4.62566842 0.04924948 6.9877588 0.11195325 9.3515625 0.17578125 C10.96220518 0.20088175 12.57288529 0.22369186 14.18359375 0.24414062 C18.1162603 0.29476713 22.04370851 0.39261723 25.9765625 0.48828125 C25.9765625 7.74828125 25.9765625 15.00828125 25.9765625 22.48828125 C7.1665625 22.48828125 -11.6434375 22.48828125 -31.0234375 22.48828125 C-29.3734375 20.83828125 -27.7234375 19.18828125 -26.0234375 17.48828125 C-25.05500678 16.5100866 -24.08737847 15.53109583 -23.12109375 14.55078125 C-22.10939858 13.52992455 -21.09767959 12.50909145 -20.0859375 11.48828125 C-19.58642578 10.98039063 -19.08691406 10.4725 -18.57226562 9.94921875 C-18.07275391 9.44648438 -17.57324219 8.94375 -17.05859375 8.42578125 C-16.619104 7.98105469 -16.17961426 7.53632813 -15.72680664 7.078125 C-14.88363892 6.29115234 -14.88363892 6.29115234 -14.0234375 5.48828125 C-12.69276245 4.17500854 -12.69276245 4.17500854 -11.33520508 2.83520508 C-7.81594853 -0.05739854 -4.41955161 -0.16002008 0 0 Z " fill="#7CD1E2" transform="translate(184.0234375,212.51171875)"/>
<path d="M0 0 C7.84073795 6.72063253 7.84073795 6.72063253 11.4453125 10.453125 C12.21230469 11.236875 12.97929687 12.020625 13.76953125 12.828125 C15.35145521 14.45464715 16.92953323 16.0849179 18.50390625 17.71875 C19.65052734 18.88664062 19.65052734 18.88664062 20.8203125 20.078125 C21.50367676 20.78356445 22.18704102 21.48900391 22.89111328 22.21582031 C25.25773591 24.40871457 25.25773591 24.40871457 30 26 C30 36.23 30 46.46 30 57 C28.35 56.34 26.7 55.68 25 55 C24.814375 53.9275 24.62875 52.855 24.4375 51.75 C23.78773046 48.80151745 23.14473038 48.09970839 20.6015625 46.34765625 C13.89130139 42.95802564 7.11409262 40.58694277 0 38 C0 25.46 0 12.92 0 0 Z " fill="#7CD1E2" transform="translate(260,146)"/>
<path d="M0 0 C2.8125 2.5 2.8125 2.5 5 5 C5.33 5.33 5.66 5.66 6 6 C6.08631874 7.34267413 6.10706473 8.68974322 6.09765625 10.03515625 C6.09515869 10.76355713 6.09266113 11.49195801 6.09008789 12.24243164 C6.08098389 13.1730542 6.07187988 14.10367676 6.0625 15.0625 C6.041875 18.011875 6.02125 20.96125 6 24 C-3.9 24 -13.8 24 -24 24 C-24 16.74 -24 9.48 -24 2 C-19.16601562 1.70703125 -19.16601562 1.70703125 -14.33203125 1.4140625 C-0.8401275 -0.26253984 -0.8401275 -0.26253984 0 0 Z " fill="#7CCFE0" transform="translate(284,211)"/>
<path d="M0 0 C10.23 0 20.46 0 31 0 C27.07795488 4.5757193 23.37336355 8.70953204 18.9375 12.6875 C18.43412109 13.14705078 17.93074219 13.60660156 17.41210938 14.08007812 C15.95480402 15.40164482 14.47770848 16.70128716 13 18 C12.21753906 18.76957031 11.43507812 19.53914063 10.62890625 20.33203125 C8 22 8 22 0 22 C0 14.74 0 7.48 0 0 Z " fill="#5967CD" transform="translate(130,213)"/>
<path d="M0 0 C0.80179688 0.00451172 1.60359375 0.00902344 2.4296875 0.01367188 C4.41149006 0.02546832 6.39325433 0.04340395 8.375 0.0625 C7.10546875 1.52734375 5.8359375 2.9921875 4.56640625 4.45703125 C3.16628769 6.16962971 3.16628769 6.16962971 2.375 9.0625 C-1.1875 10.25 -1.1875 10.25 -4.625 11.0625 C-4.625 13.0425 -4.625 15.0225 -4.625 17.0625 C-2.9853125 17.371875 -2.9853125 17.371875 -1.3125 17.6875 C2.375 19.0625 2.375 19.0625 4.125 22 C4.5375 23.010625 4.95 24.02125 5.375 25.0625 C6.88914653 26.72830098 6.88914653 26.72830098 8.375 28.0625 C5.47759378 28.19789281 2.58654379 28.29676829 -0.3125 28.375 C-1.12912109 28.41689453 -1.94574219 28.45878906 -2.78710938 28.50195312 C-7.25429507 28.59238199 -9.02445109 28.53874383 -12.64453125 25.66796875 C-16.89685143 20.07369348 -16.33690953 13.87980759 -15.625 7.0625 C-12.26387234 -0.07362551 -7.08289674 -0.07473836 0 0 Z " fill="#FC9D22" transform="translate(159.625,375.9375)"/>
<path d="M0 0 C4.76535155 0.4204722 7.85709332 2.52471749 11 6 C14.99897711 11.84478911 15.52693211 17.06604591 15.25 24 C15.23195313 24.87011719 15.21390625 25.74023438 15.1953125 26.63671875 C15.14868436 28.75829907 15.07696077 30.87930335 15 33 C11.7 33 8.4 33 5 33 C4.98582031 31.75863281 4.97164063 30.51726562 4.95703125 29.23828125 C4.910118 27.59631757 4.86187068 25.95439163 4.8125 24.3125 C4.80669922 23.49587891 4.80089844 22.67925781 4.79492188 21.83789062 C4.63481545 17.4438588 4.44698802 15.55147873 1.59375 12.03125 C0.30984375 11.02578125 0.30984375 11.02578125 -1 10 C-1.763125 9.401875 -2.52625 8.80375 -3.3125 8.1875 C-3.869375 7.795625 -4.42625 7.40375 -5 7 C-4.360625 6.21625 -3.72125 5.4325 -3.0625 4.625 C-1.01857687 2.20460719 -1.01857687 2.20460719 0 0 Z " fill="#7B4031" transform="translate(285,202)"/>
<path d="M0 0 C0 7.26 0 14.52 0 22 C-8.91 22 -17.82 22 -27 22 C-25.35 20.35 -23.7 18.7 -22 17 C-21.03156928 16.02180535 -20.06394097 15.04281458 -19.09765625 14.0625 C-18.08596108 13.0416433 -17.07424209 12.0208102 -16.0625 11 C-15.56298828 10.49210938 -15.06347656 9.98421875 -14.54882812 9.4609375 C-5.14853766 0 -5.14853766 0 0 0 Z " fill="#5967CE" transform="translate(180,213)"/>
<path d="M0 0 C1.02075623 -0.00287018 1.02075623 -0.00287018 2.06213379 -0.00579834 C3.50122446 -0.00715963 4.94032744 -0.00346705 6.37939453 0.00488281 C8.58524087 0.01558372 10.79027281 0.00498628 12.99609375 -0.0078125 C14.39323097 -0.00649089 15.79036768 -0.00392848 17.1875 0 C18.46302734 0.00225586 19.73855469 0.00451172 21.05273438 0.00683594 C24.09375 0.265625 24.09375 0.265625 26.09375 2.265625 C26.4437503 4.99562732 26.55309974 6.58971891 24.98242188 8.90087891 C22.19901542 10.91215632 19.96711774 10.65430049 16.5625 10.6640625 C15.27730469 10.66792969 13.99210937 10.67179687 12.66796875 10.67578125 C11.99942871 10.66949707 11.33088867 10.66321289 10.64208984 10.65673828 C8.6005567 10.64067854 6.56100292 10.65659171 4.51953125 10.67578125 C3.23433594 10.67191406 1.94914062 10.66804688 0.625 10.6640625 C-0.55513672 10.66067871 -1.73527344 10.65729492 -2.95117188 10.65380859 C-5.90625 10.265625 -5.90625 10.265625 -7.79492188 8.90087891 C-9.36559974 6.58971891 -9.2562503 4.99562732 -8.90625 2.265625 C-6.03758116 -0.60304384 -4.00969387 0.00709142 0 0 Z " fill="#E6EAF0" transform="translate(300.90625,63.734375)"/>
<path d="M0 0 C0.66 0.99 1.32 1.98 2 3 C2.8353125 3.99 2.8353125 3.99 3.6875 5 C4.120625 5.66 4.55375 6.32 5 7 C3.73786958 10.78639125 2.34654649 11.04104596 -1 13 C-3.0140956 16.0211434 -3.26836596 16.80660017 -3.4140625 20.23046875 C-3.47207031 21.43413086 -3.47207031 21.43413086 -3.53125 22.66210938 C-3.57765625 23.91217773 -3.57765625 23.91217773 -3.625 25.1875 C-3.68300781 26.4549707 -3.68300781 26.4549707 -3.7421875 27.74804688 C-3.83636279 29.83167524 -3.91926675 31.91580753 -4 34 C-6.97 34 -9.94 34 -13 34 C-13.17605097 30.50064848 -13.28142307 27.00245076 -13.375 23.5 C-13.42527344 22.51773438 -13.47554688 21.53546875 -13.52734375 20.5234375 C-13.65436398 14.17242608 -12.7742228 10.50147626 -8.67773438 5.58984375 C-6.03084099 3.08161184 -3.28127969 1.57501425 0 0 Z " fill="#7D412D" transform="translate(105,201)"/>
<path d="M0 0 C-2.95399668 3.82396493 -5.9862849 6.87543881 -9.68359375 9.953125 C-12.10473777 12.02364029 -12.10473777 12.02364029 -14.47265625 14.671875 C-21.21501386 21.70219781 -21.21501386 21.70219781 -26.81640625 22.63671875 C-30.26771347 22.6262708 -33.57994352 22.44935049 -37 22 C-15.84004855 -3.07242321 -15.84004855 -3.07242321 0 0 Z " fill="#FAF0F2" transform="translate(176,213)"/>
<path d="M0 0 C1.11246094 -0.00257812 2.22492188 -0.00515625 3.37109375 -0.0078125 C4.53769531 -0.00007813 5.70429688 0.00765625 6.90625 0.015625 C8.07285156 0.00789063 9.23945313 0.00015625 10.44140625 -0.0078125 C11.55386719 -0.00523438 12.66632813 -0.00265625 13.8125 0 C14.83666016 0.00225586 15.86082031 0.00451172 16.91601562 0.00683594 C19.40625 0.265625 19.40625 0.265625 21.40625 2.265625 C21.76230306 5.04283887 21.89146505 6.60073743 20.21289062 8.90087891 C17.78539831 10.73461972 16.21090912 10.6530473 13.1875 10.6640625 C12.17300781 10.66792969 11.15851563 10.67179687 10.11328125 10.67578125 C9.05496094 10.66417969 7.99664062 10.65257813 6.90625 10.640625 C5.84792969 10.65222656 4.78960937 10.66382812 3.69921875 10.67578125 C2.17748047 10.66998047 2.17748047 10.66998047 0.625 10.6640625 C-0.30376953 10.66067871 -1.23253906 10.65729492 -2.18945312 10.65380859 C-5.01859441 10.19703213 -5.92068347 9.55821903 -7.59375 7.265625 C-7.90625 4.703125 -7.90625 4.703125 -7.59375 2.265625 C-4.94675384 -0.38137116 -3.68980591 0.00812733 0 0 Z " fill="#BEE8F1" transform="translate(302.59375,86.734375)"/>
<path d="M0 0 C1.11246094 -0.00257812 2.22492188 -0.00515625 3.37109375 -0.0078125 C4.53769531 -0.00007813 5.70429688 0.00765625 6.90625 0.015625 C8.07285156 0.00789063 9.23945313 0.00015625 10.44140625 -0.0078125 C11.55386719 -0.00523438 12.66632813 -0.00265625 13.8125 0 C14.83666016 0.00225586 15.86082031 0.00451172 16.91601562 0.00683594 C19.40625 0.265625 19.40625 0.265625 21.40625 2.265625 C21.65625 4.765625 21.65625 4.765625 21.40625 7.265625 C18.75925384 9.91262116 17.50230591 9.52312267 13.8125 9.53125 C12.70003906 9.53382812 11.58757812 9.53640625 10.44140625 9.5390625 C9.27480469 9.53132813 8.10820312 9.52359375 6.90625 9.515625 C5.73964844 9.52335937 4.57304687 9.53109375 3.37109375 9.5390625 C2.25863281 9.53648438 1.14617187 9.53390625 0 9.53125 C-1.02416016 9.52899414 -2.04832031 9.52673828 -3.10351562 9.52441406 C-5.59375 9.265625 -5.59375 9.265625 -7.59375 7.265625 C-7.84375 4.765625 -7.84375 4.765625 -7.59375 2.265625 C-4.94675384 -0.38137116 -3.68980591 0.00812733 0 0 Z " fill="#C1E9F1" transform="translate(302.59375,40.734375)"/>
<path d="M0 0 C1.12591553 0.00523682 2.25183105 0.01047363 3.41186523 0.01586914 C4.62680664 0.0190918 5.84174805 0.02231445 7.09350586 0.02563477 C8.37290039 0.03401367 9.65229492 0.04239258 10.97045898 0.05102539 C12.2537207 0.05553711 13.53698242 0.06004883 14.85913086 0.06469727 C18.04211921 0.07652994 21.22501661 0.09301471 24.40795898 0.11352539 C24.38733398 1.22727539 24.36670898 2.34102539 24.34545898 3.48852539 C24.14415181 6.9456846 24.14415181 6.9456846 25.40795898 9.11352539 C20.94967972 9.17135579 16.49149619 9.20706394 12.03295898 9.23852539 C10.76194336 9.2552832 9.49092773 9.27204102 8.18139648 9.28930664 C6.96967773 9.29575195 5.75795898 9.30219727 4.50952148 9.30883789 C3.38884277 9.31931152 2.26816406 9.32978516 1.11352539 9.34057617 C-1.59204102 9.11352539 -1.59204102 9.11352539 -3.59204102 7.11352539 C-3.77954102 4.05102539 -3.77954102 4.05102539 -3.59204102 1.11352539 C-2.59204102 0.11352539 -2.59204102 0.11352539 0 0 Z " fill="#DE7D00" transform="translate(157.592041015625,385.886474609375)"/>
<path d="M0 0 C0.33 0 0.66 0 1 0 C1 11.88 1 23.76 1 36 C-4.28 36 -9.56 36 -15 36 C-15 35.67 -15 35.34 -15 35 C-12.03 35 -9.06 35 -6 35 C-5.97421875 34.20980469 -5.9484375 33.41960937 -5.921875 32.60546875 C-5.40587111 22.34402769 -4.65598673 9.31197346 0 0 Z " fill="#7DCCDB" transform="translate(49,200)"/>
<path d="M0 0 C6.93 0 13.86 0 21 0 C15 7 15 7 11 8 C8.203125 6.6015625 8.203125 6.6015625 5.25 4.625 C4.26515625 3.97789063 3.2803125 3.33078125 2.265625 2.6640625 C1.51796875 2.11492187 0.7703125 1.56578125 0 1 C0 0.67 0 0.34 0 0 Z " fill="#64C9DD" transform="translate(360,68)"/>
<path d="M0 0 C1.98 1.32 3.96 2.64 6 4 C5.01 4.495 5.01 4.495 4 5 C3.67 5.99 3.34 6.98 3 8 C-1.26754372 10.45707063 -5.2214118 10.16198604 -10 10 C-6.66666667 6.66666667 -3.33333333 3.33333333 0 0 Z " fill="#FFC252" transform="translate(254,140)"/>
<path d="M0 0 C0 3.63 0 7.26 0 11 C-1.98 9.68 -3.96 8.36 -6 7 C-2.86206897 0 -2.86206897 0 0 0 Z " fill="#61C8DD" transform="translate(388,76)"/>
</svg>
