<?xml version="1.0" encoding="UTF-8"?>
<svg version="1.1" xmlns="http://www.w3.org/2000/svg" width="512" height="512">
<path d="M0 0 C0.60376465 0.43538086 1.2075293 0.87076172 1.82958984 1.31933594 C18.7527158 13.58344662 34.76216348 26.83945248 47.82421875 43.265625 C49.25863415 45.06830145 50.71930634 46.85043653 52.20703125 48.609375 C64.07309794 62.65746797 87 89.93955584 87 109 C75.28125 106.0703125 75.28125 106.0703125 73.14160156 105.5065918 C71.0122319 104.96390825 71.0122319 104.96390825 68.85058594 104.72192383 C65.7113433 104.24074483 63.6991747 103.84857101 61.62890625 101.3359375 C60.36140844 99.08307595 59.29344369 96.80239192 58.25 94.4375 C53.76611026 85.09785087 48.34746423 76.89516625 42.16992188 68.59960938 C41.07068802 67.09665024 40.03287519 65.54931278 39 64 C36.05354008 65.31731577 34.12163996 66.6996069 31.9375 69.0625 C28.16947624 72.94300208 24.08321733 76.30553569 19.8671875 79.6875 C18.03902199 81.16198772 16.22933417 82.65989735 14.4453125 84.1875 C3.58899911 93.42691565 -8.7029534 100.83931193 -21 108 C-20.88040891 109.54209568 -20.7538162 111.08364751 -20.625 112.625 C-20.54894531 113.63304687 -20.47289062 114.64109375 -20.39453125 115.6796875 C-20.07276332 119.02844319 -20.07276332 119.02844319 -19.13671875 122.3203125 C-17.83457981 127.73869159 -17.07096854 131.8883353 -19.921875 136.83984375 C-22.04737306 140.08367953 -24.40136219 143.1481362 -26.74951172 146.23242188 C-29.50768345 150.13112616 -31.25367413 154.57903819 -33 159 C-33.66 159 -34.32 159 -35 159 C-35.71636139 153.82276482 -36.42831242 148.6449492 -37.13623047 143.46655273 C-37.37753922 141.70597059 -37.62004027 139.94555143 -37.86376953 138.18530273 C-38.21442211 135.65130113 -38.56074552 133.11673927 -38.90625 130.58203125 C-39.0156189 129.79850784 -39.12498779 129.01498444 -39.2376709 128.2077179 C-39.74618741 124.44661417 -40.13219383 120.7972679 -40 117 C-40.53141602 117.21092285 -41.06283203 117.4218457 -41.61035156 117.63916016 C-81.90245213 133.54030391 -81.90245213 133.54030391 -92 132 C-93.97906548 130.23585566 -95.52433165 128.32639495 -97.15625 126.23828125 C-99.6269712 123.23886759 -102.49384046 120.89496889 -105.49609375 118.4453125 C-105.99238281 117.96835938 -106.48867188 117.49140625 -107 117 C-107 116.34 -107 115.68 -107 115 C-106.04468384 114.82778931 -106.04468384 114.82778931 -105.07006836 114.65209961 C-85.91475081 111.14580121 -66.82526629 106.93526688 -49.01171875 98.84765625 C-47 98 -47 98 -45 98 C-56.71732335 55.86867732 -72.63634374 9.88236581 -111.1875 -15.0625 C-116.20671081 -17.61324648 -121.65875424 -19.21958475 -127 -21 C-127.33 20.91 -127.66 62.82 -128 106 C-134.36228202 105.20471475 -140.69162814 104.1469767 -147 103 C-147.33 62.08 -147.66 21.16 -148 -21 C-179.95452735 -9.38017187 -197.19301169 15.30620791 -211.5300293 45.07592773 C-219.36572859 61.97553069 -224.76399501 80.15822235 -230 98 C-228.13021484 98.61294922 -228.13021484 98.61294922 -226.22265625 99.23828125 C-220.5889029 101.11619903 -215.01388549 103.14663887 -209.4375 105.1875 C-208.42880859 105.55552734 -207.42011719 105.92355469 -206.38085938 106.30273438 C-203.92016504 107.20071288 -201.45989023 108.09982162 -199 109 C-202.96886538 112.01363261 -207.12191591 114.63680447 -211.34375 117.28125 C-213.97394274 118.919473 -213.97394274 118.919473 -216.1484375 120.72265625 C-218 122 -218 122 -221.125 121.9375 C-225.97938149 120.76305286 -230.41742295 118.95676093 -235 117 C-235.04970947 117.70020264 -235.09941895 118.40040527 -235.15063477 119.12182617 C-235.67364831 125.95792089 -236.46487969 132.71779662 -237.40917969 139.50756836 C-239.78822014 156.64127695 -241.11855171 173.72755505 -242 191 C-240.74316406 190.91878906 -239.48632812 190.83757812 -238.19140625 190.75390625 C-234.26648822 190.76168179 -234.26648822 190.76168179 -232.15234375 192.65234375 C-231.75144531 193.40644531 -231.35054687 194.16054687 -230.9375 194.9375 C-228.398319 199.35833304 -225.53843036 203.20283547 -222.3203125 207.15234375 C-221 209 -221 209 -221 211 C-227.93 211 -234.86 211 -242 211 C-242 215.62 -242 220.24 -242 225 C-244.31 225.66 -246.62 226.32 -249 227 C-248.11145332 229.91907432 -247.2162125 232.83560914 -246.3125 235.75 C-246.04211914 236.62237305 -245.77173828 237.49474609 -245.49316406 238.39355469 C-243.98917348 243.15589768 -242.34090683 247.70617858 -240.25 252.25 C-237.28902375 258.95266006 -236.66305192 265.75591038 -236 273 C-232.2185707 273.21586621 -232.2185707 273.21586621 -229.66015625 272.19921875 C-225.58873036 271.8943102 -223.38062704 274.30965664 -220.4375 276.8125 C-215.56029205 280.92774373 -215.56029205 280.92774373 -210 284 C-210 284.66 -210 285.32 -210 286 C-213.28942366 287.33891561 -216.58189109 288.67017703 -219.875 290 C-220.81214844 290.3815625 -221.74929687 290.763125 -222.71484375 291.15625 C-223.61074219 291.5171875 -224.50664062 291.878125 -225.4296875 292.25 C-226.25710449 292.58515625 -227.08452148 292.9203125 -227.93701172 293.265625 C-230 294 -230 294 -232 294 C-220.87221549 337.49991752 -206.0893821 389.11107677 -166 415 C-159.72150487 418.58660963 -153.99134018 421.00247424 -147 423 C-147 380.76 -147 338.52 -147 295 C-132 292 -132 292 -128 292 C-128 335.23 -128 378.46 -128 423 C-112.9130114 417.9710038 -103.00223041 412.00223041 -92 401 C-91.28070313 400.28070313 -90.56140625 399.56140625 -89.8203125 398.8203125 C-83.62214919 392.22387364 -78.78230793 384.6490453 -74 377 C-73.6169873 376.39333496 -73.23397461 375.78666992 -72.83935547 375.16162109 C-57.56679063 350.6313487 -49.62144177 321.86966969 -43 294 C-43.55324951 293.82114258 -44.10649902 293.64228516 -44.67651367 293.45800781 C-48.5074263 292.20282271 -52.30453107 290.91260699 -56.05078125 289.421875 C-70.01755664 283.9070756 -84.39890959 280.42048572 -99 277 C-95.44503084 272.84819005 -91.88249496 268.70351571 -88.296875 264.578125 C-86.80731286 262.81899254 -86.80731286 262.81899254 -85 260 C-69.17277008 263.4058596 -54.18716279 268.44277489 -39 274 C-38.88930176 273.1121582 -38.77860352 272.22431641 -38.66455078 271.30957031 C-38.24916521 268.00636896 -37.8272347 264.70413993 -37.40087891 261.40234375 C-37.21792029 259.97494276 -37.03755349 258.54720702 -36.85986328 257.11914062 C-36.60354413 255.0628596 -36.33783354 253.00797493 -36.0703125 250.953125 C-35.83465576 249.09929199 -35.83465576 249.09929199 -35.59423828 247.20800781 C-35.07188208 244.3880569 -34.45446262 242.44008747 -33 240 C-32.41992188 241.134375 -31.83984375 242.26875 -31.2421875 243.4375 C-30.45449073 244.95904115 -29.66533307 246.47982656 -28.875 248 C-28.46846191 248.78656982 -28.06192383 249.57313965 -27.64306641 250.38354492 C-25.52318219 254.40613612 -23.44902186 257.92672592 -20.375 261.3125 C-17.70839263 264.57413547 -17.75017402 266.90498037 -18.0625 271.0625 C-18.342135 273.04657692 -18.65614868 275.0260387 -19 277 C-19.33662867 279.3328602 -19.67074642 281.66608748 -20 284 C-19.26849731 284.43699219 -19.26849731 284.43699219 -18.5222168 284.8828125 C-9.06015713 290.5526935 0.26612794 296.23648948 9 303 C10.25490234 303.96679688 10.25490234 303.96679688 11.53515625 304.953125 C16.77523585 309.06743788 21.76229746 313.40886664 26.6796875 317.90234375 C28.68697126 319.71700938 30.72982722 321.46095525 32.8125 323.1875 C35.07751169 325.09459711 36.96020412 327.06501473 38.8125 329.375 C39.534375 330.24125 40.25625 331.1075 41 332 C41.66 332 42.32 332 43 332 C45.08549203 329.59202266 46.74686292 326.84340443 48.5 324.1875 C49.31500977 322.98625488 49.31500977 322.98625488 50.14648438 321.76074219 C52.93220152 317.55604017 55.35111359 313.43731964 57.3125 308.78515625 C63.03519923 295.40953315 63.03519923 295.40953315 69.9296875 292.5078125 C74.17387021 291.09359566 78.45748844 290.09594256 82.86865234 289.36279297 C84.9474496 289.00894501 86.96150719 288.53632394 89 288 C85.22517297 315.5895446 60.55307326 345.47748687 42 365 C40.78427491 366.3894001 39.57537389 367.78481591 38.375 369.1875 C31.56982654 376.97388452 24.10353957 383.58782008 16 390 C14.55173828 391.17369141 14.55173828 391.17369141 13.07421875 392.37109375 C-37.89847279 432.85131257 -102.31385941 448.78139465 -166.50097656 442.41113281 C-182.29071824 440.55584918 -197.93927283 437.08278601 -213 432 C-213.8235498 431.72849121 -214.64709961 431.45698242 -215.49560547 431.17724609 C-241.83682211 422.40975053 -266.31030862 409.38208834 -288 392 C-288.97324219 391.23042969 -289.94648438 390.46085937 -290.94921875 389.66796875 C-305.94119734 377.55064256 -319.69325972 363.61623919 -331 348 C-331.86691609 346.8279242 -332.73410791 345.65605231 -333.6015625 344.484375 C-341.37053413 333.89337218 -348.12389429 322.82886327 -354.3125 311.25 C-354.73337891 310.46987549 -355.15425781 309.68975098 -355.58789062 308.88598633 C-355.98814453 308.12439209 -356.38839844 307.36279785 -356.80078125 306.578125 C-357.15309814 305.91200195 -357.50541504 305.24587891 -357.8684082 304.55957031 C-359.52296826 300.81708754 -360.70602371 296.88192886 -362 293 C-355.07 293 -348.14 293 -341 293 C-340.24976563 294.41410156 -339.49953125 295.82820313 -338.7265625 297.28515625 C-333.541519 306.97167898 -328.32750788 316.49868277 -322.03564453 325.51782227 C-320.29002719 328.02137633 -318.97277314 330.08168057 -318 333 C-313.52458858 329.22465294 -309.27933632 325.3150404 -305.1875 321.125 C-300.09894241 315.98990072 -294.67856104 311.46447086 -289 307 C-288.03707031 306.22011719 -287.07414062 305.44023437 -286.08203125 304.63671875 C-276.44861638 296.98126739 -266.02698184 289.51349092 -255 284 C-255.14622803 282.9169458 -255.29245605 281.8338916 -255.44311523 280.71801758 C-255.99287472 276.63875588 -256.5377626 272.55885493 -257.08129883 268.47875977 C-257.31568006 266.72435439 -257.5513227 264.97011699 -257.78833008 263.21606445 C-260.17018264 245.57625574 -261 229.01779115 -261 211 C-280.47 211 -299.94 211 -320 211 C-320 204.4 -320 197.8 -320 191 C-300.53 191 -281.06 191 -261 191 C-261 184.73 -261 178.46 -261 172 C-260.68358081 166.90899537 -260.31711544 161.8816962 -259.8125 156.8125 C-259.74952728 156.15386963 -259.68655457 155.49523926 -259.62167358 154.81665039 C-258.11060426 139.10845425 -255.63352062 123.55418229 -253 108 C-254.02996094 107.41734375 -255.05992187 106.8346875 -256.12109375 106.234375 C-276.92250469 94.32424772 -295.39049475 80.31296664 -312 63 C-323.02112227 75.35297994 -331.36398446 90.38248454 -339 105 C-345.93 105 -352.86 105 -360 105 C-357.80698863 98.42096588 -355.74991223 93.04277691 -352.5625 87.0625 C-352.12929443 86.24692627 -351.69608887 85.43135254 -351.24975586 84.59106445 C-340.98039513 65.64444954 -327.91956024 48.50741096 -313 33 C-312.40026367 32.37303223 -311.80052734 31.74606445 -311.18261719 31.10009766 C-302.35128263 21.91542083 -293.33077845 13.46847387 -283 6 C-282.38721191 5.55350098 -281.77442383 5.10700195 -281.14306641 4.64697266 C-248.99867974 -18.5981734 -212.25622281 -34.00146692 -173 -40 C-172.17516113 -40.12842285 -171.35032227 -40.2568457 -170.50048828 -40.38916016 C-112.39138677 -48.94341331 -47.74880884 -34.55750368 0 0 Z M-79 -15 C-75.21348691 -9.85164104 -75.21348691 -9.85164104 -71.20703125 -4.875 C-60.6931268 7.61161642 -52.83644496 22.23972267 -46 37 C-45.64728027 37.74991211 -45.29456055 38.49982422 -44.93115234 39.27246094 C-37.74215575 54.70327586 -32.78214508 70.70243591 -28 87 C-23.1983815 87 -20.65368418 85.30861481 -16.75 82.8125 C-16.04907227 82.3683374 -15.34814453 81.9241748 -14.62597656 81.46655273 C-0.21916138 72.12076622 14.19016876 60.38081813 25 47 C17.37152933 39.15322651 9.72891046 31.63965996 1 25 C0.3596582 24.51031738 -0.28068359 24.02063477 -0.94042969 23.51611328 C-11.77342427 15.28754072 -22.8830744 8.18126075 -35 2 C-35.76425293 1.60828613 -36.52850586 1.21657227 -37.31591797 0.81298828 C-50.28821726 -5.76126998 -64.52722206 -12.65623029 -79 -15 Z M-197 -15 C-230.52207874 -4.90577221 -260.76707482 10.75693673 -286.48828125 34.67578125 C-289.37189031 37.34412867 -292.34063179 39.89739714 -295.34375 42.4296875 C-297.14975363 44.14198339 -298.5614885 45.97380392 -300 48 C-293.02957428 55.21310979 -285.90759109 61.80769811 -278 68 C-277.00355469 68.80179687 -276.00710938 69.60359375 -274.98046875 70.4296875 C-268.98470179 75.20559707 -262.80461867 79.54617817 -256.3125 83.625 C-255.61680908 84.06320068 -254.92111816 84.50140137 -254.2043457 84.95288086 C-250.85119255 87.22227655 -250.85119255 87.22227655 -247 88 C-246.78496826 87.25766113 -246.56993652 86.51532227 -246.34838867 85.75048828 C-236.14805178 50.88573143 -222.81204277 12.88748957 -196 -13 C-196.495 -13.99 -196.495 -13.99 -197 -15 Z M-300.328125 342.96484375 C-302.16502675 345.20088536 -303.07072424 347.27380835 -304 350 C-297.63205038 357.05781083 -291.34951469 363.9442201 -284 370 C-283.16726563 370.7321875 -282.33453125 371.464375 -281.4765625 372.21875 C-260.3120049 390.54203823 -235.45519505 403.53766951 -209.25 413 C-207.96246826 413.47312622 -207.96246826 413.47312622 -206.64892578 413.95581055 C-205.84181152 414.23851807 -205.03469727 414.52122559 -204.203125 414.8125 C-203.48801758 415.06644531 -202.77291016 415.32039063 -202.03613281 415.58203125 C-199.69767341 416.06206033 -198.24538985 415.74215246 -196 415 C-196.54527344 414.42894531 -197.09054688 413.85789062 -197.65234375 413.26953125 C-225.63294814 383.18440277 -239.25468209 342.83957362 -250 304 C-264.18445839 304 -290.6321245 333.50577559 -300.328125 342.96484375 Z M-25 304 C-25.20044922 304.73299316 -25.40089844 305.46598633 -25.60742188 306.22119141 C-36.64695848 346.34277257 -50.90550001 382.93163044 -78 415 C-73.84271122 416.38576293 -70.91815848 414.93781981 -66.9375 413.5625 C-66.13965088 413.29026611 -65.34180176 413.01803223 -64.51977539 412.73754883 C-45.30347269 406.01665026 -26.56811802 396.85734937 -10 385 C-9.03964844 384.31421875 -8.07929688 383.6284375 -7.08984375 382.921875 C14.36189578 368.23957857 14.36189578 368.23957857 29 348 C17.97412041 334.92958645 5.56445227 324.24705871 -8.1875 314.1875 C-8.93580078 313.63602295 -9.68410156 313.0845459 -10.45507812 312.51635742 C-15.12432862 309.14372028 -19.78106087 306.44102136 -25 304 Z " fill="#2C3C53" transform="translate(382,55)"/>
<path d="M0 0 C1.49156472 1.46666381 2.97204114 2.9447514 4.4375 4.4375 C5.05753906 4.98792969 5.67757812 5.53835937 6.31640625 6.10546875 C20.05086045 18.54943732 26.38692096 38.26494776 27.72485352 56.31396484 C27.83699947 60.19298262 27.84752834 64.05713827 27.8125 67.9375 C27.82410156 69.22269531 27.83570313 70.50789063 27.84765625 71.83203125 C27.77355706 96.4082622 19.68999003 117.83231852 2.4375 135.4375 C1.77363281 136.13746094 1.10976563 136.83742188 0.42578125 137.55859375 C-13.32722165 150.9972423 -33.34636004 156.26848194 -52.0625 156.6875 C-75.16520405 156.13906786 -95.75563868 148.76071548 -111.96484375 131.9453125 C-130.60451773 110.46985906 -134.14110416 84.0004939 -132.5625 56.4375 C-130.35103779 33.97488132 -120.68503672 13.36852783 -103.39453125 -1.3828125 C-75.05267328 -23.19627008 -27.37613396 -24.30668863 0 0 Z M-68.8046875 30.859375 C-79.83221021 47.03307498 -78.76814382 74.00104031 -75.375 92.4375 C-73.19202275 102.08321344 -69.99810004 109.83986285 -61.5625 115.4375 C-56.78927858 118.13008644 -51.7383262 118.09292379 -46.48046875 117.0078125 C-40.9323616 115.28927835 -37.60138365 112.34855305 -34.5625 107.4375 C-24.93974459 88.47687339 -25.63384956 58.42890929 -31.5625 38.4375 C-33.95506434 31.89612729 -36.69394572 27.27002525 -42.5625 23.4375 C-53.15885981 18.80159258 -61.80668939 22.35200474 -68.8046875 30.859375 Z " fill="#086BB0" transform="translate(484.5625,184.5625)"/>
<path d="M0 0 C7.21040339 6.82065185 12.78808532 14.86770887 16.3125 24.1875 C15.3125 26.1875 15.3125 26.1875 11.59057617 27.53198242 C9.93154482 28.04437447 8.26959295 28.54736681 6.60546875 29.04296875 C5.29005852 29.44181023 5.29005852 29.44181023 3.94807434 29.84870911 C2.08887813 30.40982136 0.22845825 30.96689233 -1.63305664 31.52026367 C-4.4815315 32.36949389 -7.3237798 33.23757102 -10.16601562 34.10742188 C-11.97100736 34.64959344 -13.77633563 35.19064611 -15.58203125 35.73046875 C-16.43320023 35.99184128 -17.2843692 36.25321381 -18.16133118 36.52250671 C-18.95863144 36.75637589 -19.7559317 36.99024506 -20.57739258 37.23120117 C-21.27608963 37.44056808 -21.97478668 37.649935 -22.69465637 37.86564636 C-25.01513843 38.24041515 -26.48834714 37.99088792 -28.6875 37.1875 C-29.890625 35.515625 -29.890625 35.515625 -30.9375 33.4375 C-34.36593352 27.58714555 -39.2393482 24.71189983 -45.6875 22.875 C-54.02584697 21.19113964 -60.68006651 22.71461613 -68.6875 25.1875 C-68.89375 26.425 -69.1 27.6625 -69.3125 28.9375 C-69.42851562 29.63359375 -69.54453125 30.3296875 -69.6640625 31.046875 C-69.69321719 33.70966985 -69.10538497 34.94146008 -67.6875 37.1875 C-60.64047852 41.60238643 -51.46131808 42.79094486 -43.42819214 44.56500244 C-3.1250598 53.51344725 -3.1250598 53.51344725 8.3125 66.1875 C8.79332031 66.65285156 9.27414062 67.11820312 9.76953125 67.59765625 C18.39054233 76.48057147 20.57811688 88.97495024 20.55908203 100.8894043 C20.33070338 114.71256952 15.27258024 126.91442262 5.75 136.99609375 C-12.36047692 153.27810906 -36.90604174 158.30455243 -60.6875 157.1875 C-82.18976469 155.88111395 -101.40386538 150.32170211 -116.6875 134.1875 C-123.96132244 125.52543312 -129.23315747 115.42582803 -130.6875 104.1875 C-124.19194455 103.04462676 -117.69570637 101.90569848 -111.19897461 100.76953125 C-108.98820266 100.38242289 -106.77758955 99.9944063 -104.56713867 99.60546875 C-101.39282733 99.04709763 -98.21796213 98.49197798 -95.04296875 97.9375 C-94.05225876 97.76250977 -93.06154877 97.58751953 -92.04081726 97.40722656 C-91.12008926 97.24706055 -90.19936127 97.08689453 -89.25073242 96.921875 C-88.03494759 96.70869629 -88.03494759 96.70869629 -86.79460144 96.49121094 C-84.6875 96.1875 -84.6875 96.1875 -81.6875 96.1875 C-81.40777344 96.83976562 -81.12804687 97.49203125 -80.83984375 98.1640625 C-77.33314486 105.8088916 -73.56108261 110.81950888 -65.625 114 C-56.88752135 116.85100071 -47.41637727 117.36766022 -38.6875 114.1875 C-35.4536266 112.20591274 -35.4536266 112.20591274 -33.6875 109.1875 C-33.3565684 105.58719811 -33.3565684 105.58719811 -34.6875 102.1875 C-38.09102094 98.95595041 -41.15550296 97.43684434 -45.63671875 96.1484375 C-46.78188965 95.81811523 -47.92706055 95.48779297 -49.10693359 95.14746094 C-54.88099079 93.59941833 -60.68509937 92.19755633 -66.5 90.8125 C-105.16445377 81.33621797 -105.16445377 81.33621797 -115.37890625 65.578125 C-122.62168387 52.94253223 -123.58142723 38.77988341 -121.03515625 24.5390625 C-116.64947844 10.19620203 -107.20263896 -0.86660504 -94.23071289 -8.08129883 C-66.47350713 -22.64095932 -24.23306417 -20.50490045 0 0 Z " fill="#086BB0" transform="translate(275.6875,183.8125)"/>
<path d="M0 0 C17.16 0 34.32 0 52 0 C52 55.77 52 111.54 52 169 C34.84 169 17.68 169 0 169 C0 113.23 0 57.46 0 0 Z " fill="#086CAF" transform="translate(0,170)"/>
<path d="M0 0 C15.84 0 31.68 0 48 0 C48 6.6 48 13.2 48 20 C35.46 20 22.92 20 10 20 C6.66666667 13.33333333 3.33333333 6.66666667 0 0 Z " fill="#2C3C53" transform="translate(294,246)"/>
</svg>
