<?xml version="1.0" encoding="UTF-8"?>
<svg version="1.1" xmlns="http://www.w3.org/2000/svg" width="512" height="512">
<path d="M0 0 C1.01790619 0.00215515 2.03581238 0.0043103 3.08456421 0.00653076 C17.69363523 0.05620146 32.02575853 0.30709809 46.375 3.3125 C47.34985352 3.51117676 48.32470703 3.70985352 49.32910156 3.91455078 C97.7109774 14.03517194 141.69928269 35.9516877 177.375 70.3125 C178.3640332 71.26068604 178.3640332 71.26068604 179.37304688 72.22802734 C188.86130305 81.37247479 197.6012044 90.66984009 205.375 101.3125 C206.23306152 102.46355017 207.09113451 103.61459177 207.94921875 104.765625 C213.98736829 112.95680614 219.34595521 121.47054105 224.375 130.3125 C224.73948242 130.94430176 225.10396484 131.57610352 225.47949219 132.22705078 C247.08535996 169.97534316 256.85195086 212.74188834 256.6875 255.9375 C256.68534485 256.95607086 256.6831897 257.97464172 256.68096924 259.02407837 C256.63129502 273.64538329 256.31953619 287.94347091 253.375 302.3125 C253.15505371 303.41062012 252.93510742 304.50874023 252.70849609 305.64013672 C244.58637272 345.52079751 228.48112982 383.71909448 202.375 415.3125 C201.94509766 415.83714844 201.51519531 416.36179687 201.07226562 416.90234375 C183.70867853 438.04282789 183.70867853 438.04282789 173.58984375 446.46484375 C171.84354723 447.9216308 170.13502023 449.42369359 168.44140625 450.94140625 C134.38977703 481.32243668 91.0910812 501.08317357 46.375 509.3125 C45.57433105 509.47331055 44.77366211 509.63412109 43.94873047 509.79980469 C15.88172956 515.289821 -17.62684244 515.06193715 -45.625 509.3125 C-46.63755859 509.11382324 -47.65011719 508.91514648 -48.69335938 508.71044922 C-101.01529748 498.24762906 -155.09357767 471.19899391 -189.77734375 429.52734375 C-191.2341308 427.78104723 -192.73619359 426.07252023 -194.25390625 424.37890625 C-231.23971005 382.92452306 -255.54948447 324.90004228 -255.828125 269.08203125 C-255.83518463 268.13709808 -255.84224426 267.19216492 -255.84951782 266.21859741 C-256.07729455 226.79542292 -256.07729455 226.79542292 -252.625 210.3125 C-252.42632324 209.33764648 -252.22764648 208.36279297 -252.02294922 207.35839844 C-241.90232806 158.9765226 -219.9858123 114.98821731 -185.625 79.3125 C-184.99287598 78.65314453 -184.36075195 77.99378906 -183.70947266 77.31445312 C-174.56502521 67.82619695 -165.26765991 59.0862956 -154.625 51.3125 C-153.47394983 50.45443848 -152.32290823 49.59636549 -151.171875 48.73828125 C-142.98224019 42.70072604 -134.47961724 37.31792698 -125.625 32.3125 C-124.91778809 31.9103125 -124.21057617 31.508125 -123.48193359 31.09375 C-100.34654164 18.0683259 -75.17537591 9.31948539 -49.1875 4 C-48.46860596 3.85264404 -47.74971191 3.70528809 -47.0090332 3.5534668 C-31.36274391 0.57960912 -15.88931954 -0.06050362 0 0 Z " fill="#EFEFEF" transform="translate(255.625,-0.3125)"/>
<path d="M0 0 C0.33 0 0.66 0 1 0 C1.15557373 0.78947021 1.31114746 1.57894043 1.47143555 2.39233398 C5.49804112 22.78484951 5.49804112 22.78484951 11.01953125 42.8125 C12 46 12 46 13 51 C172.39 51 331.78 51 496 51 C494.06288971 57.45703429 492.18909876 63.37017591 489.4375 69.4375 C488.92195557 70.58085815 488.92195557 70.58085815 488.39599609 71.74731445 C474.19584383 102.77809748 453.70085672 134.10774809 427.21484375 156.15234375 C425.46854723 157.6091308 423.76002023 159.11119359 422.06640625 160.62890625 C388.01477703 191.00993668 344.7160812 210.77067357 300 219 C299.19933105 219.16081055 298.39866211 219.32162109 297.57373047 219.48730469 C269.50672956 224.977321 235.99815756 224.74943715 208 219 C206.98744141 218.80132324 205.97488281 218.60264648 204.93164062 218.39794922 C152.60970252 207.93512906 98.53142233 180.88649391 63.84765625 139.21484375 C62.3908692 137.46854723 60.88880641 135.76002023 59.37109375 134.06640625 C30.08596848 101.24308811 -2.45835822 45.47962711 0 0 Z " fill="#019245" transform="translate(2,290)"/>
<path d="M0 0 C1.01790619 0.00215515 2.03581238 0.0043103 3.08456421 0.00653076 C17.69363523 0.05620146 32.02575853 0.30709809 46.375 3.3125 C47.34985352 3.51117676 48.32470703 3.70985352 49.32910156 3.91455078 C97.7109774 14.03517194 141.69928269 35.9516877 177.375 70.3125 C178.3640332 71.26068604 178.3640332 71.26068604 179.37304688 72.22802734 C188.86130305 81.37247479 197.6012044 90.66984009 205.375 101.3125 C206.23306152 102.46355017 207.09113451 103.61459177 207.94921875 104.765625 C213.98736829 112.95680614 219.34595521 121.47054105 224.375 130.3125 C224.73948242 130.94430176 225.10396484 131.57610352 225.47949219 132.22705078 C230.66790045 141.29188234 234.90568631 150.6273451 238.8125 160.3125 C239.23781006 161.3629248 239.66312012 162.41334961 240.10131836 163.49560547 C242.42342086 169.3945441 244.18761205 175.08357961 245.375 181.3125 C243.375 179.3125 243.375 179.3125 241.375 171.3125 C82.315 171.3125 -76.745 171.3125 -240.625 171.3125 C-241.615 174.7775 -241.615 174.7775 -242.625 178.3125 C-243.75505234 174.92234298 -243.53734338 174.36586394 -242.32421875 171.1640625 C-242.01186279 170.33430908 -241.69950684 169.50455566 -241.37768555 168.6496582 C-240.8504187 167.30713989 -240.8504187 167.30713989 -240.3125 165.9375 C-239.95003174 165.00574951 -239.58756348 164.07399902 -239.21411133 163.11401367 C-228.62532823 136.38502482 -214.31190367 112.18086577 -195.625 90.3125 C-194.66980469 89.18908203 -194.66980469 89.18908203 -193.6953125 88.04296875 C-181.87797532 74.54729379 -169.13948412 61.87691975 -154.625 51.3125 C-153.47505169 50.45600934 -152.32531411 49.59923567 -151.17578125 48.7421875 C-142.98565742 42.70215791 -134.48120382 37.31882386 -125.625 32.3125 C-124.91778809 31.9103125 -124.21057617 31.508125 -123.48193359 31.09375 C-100.34654164 18.0683259 -75.17537591 9.31948539 -49.1875 4 C-48.46860596 3.85264404 -47.74971191 3.70528809 -47.0090332 3.5534668 C-31.36274391 0.57960912 -15.88931954 -0.06050362 0 0 Z " fill="#F6931E" transform="translate(255.625,-0.3125)"/>
<path d="M0 0 C14.39049505 10.16576256 25.5745815 24.43816563 29.84765625 41.80859375 C32.61465036 61.92161815 29.58143338 80.54611925 18.1015625 97.44140625 C7.19821138 111.19493162 -7.42545038 121.48557693 -24.9453125 124.8046875 C-37.82349669 126.12208004 -50.62815531 126.38353979 -62.6875 121.1875 C-64.20537109 120.55134766 -64.20537109 120.55134766 -65.75390625 119.90234375 C-83.74700566 111.65263406 -95.35650108 97.3818974 -102.8203125 79.46875 C-107.93308596 64.97428543 -107.76009298 46.25630238 -101.6875 32.1875 C-101.25179687 31.16398437 -100.81609375 30.14046875 -100.3671875 29.0859375 C-92.74149965 12.62611947 -79.27993165 -0.62969675 -62.19433594 -6.95410156 C-41.04800315 -14.49303806 -19.01116383 -12.03705082 0 0 Z " fill="#EDEEEF" transform="translate(293.6875,198.8125)"/>
<path d="M0 0 C14.39049505 10.16576256 25.5745815 24.43816563 29.84765625 41.80859375 C32.61465036 61.92161815 29.58143338 80.54611925 18.1015625 97.44140625 C7.19821138 111.19493162 -7.42545038 121.48557693 -24.9453125 124.8046875 C-37.82349669 126.12208004 -50.62815531 126.38353979 -62.6875 121.1875 C-64.20537109 120.55134766 -64.20537109 120.55134766 -65.75390625 119.90234375 C-83.74700566 111.65263406 -95.35650108 97.3818974 -102.8203125 79.46875 C-107.93308596 64.97428543 -107.76009298 46.25630238 -101.6875 32.1875 C-101.25179687 31.16398437 -100.81609375 30.14046875 -100.3671875 29.0859375 C-92.74149965 12.62611947 -79.27993165 -0.62969675 -62.19433594 -6.95410156 C-41.04800315 -14.49303806 -19.01116383 -12.03705082 0 0 Z M-77.35546875 23.2734375 C-85.12916513 32.98730266 -89.07274693 44.31240588 -88.9375 56.6875 C-88.94523437 57.39519531 -88.95296875 58.10289062 -88.9609375 58.83203125 C-88.91701962 70.84357039 -84.52021316 82.14685035 -76.6875 91.1875 C-75.90052734 92.09822266 -75.90052734 92.09822266 -75.09765625 93.02734375 C-66.01617512 102.79260699 -53.69614303 108.10452119 -40.42431641 108.66015625 C-25.28332927 108.85056615 -12.02549541 104.39822112 -0.9375 93.9375 C10.37075592 82.04984581 13.86844536 68.65368371 13.58984375 52.5859375 C12.98043599 38.58471841 6.01205979 26.93261932 -3.91796875 17.44921875 C-15.63018978 7.88451357 -29.88880447 5.04655527 -44.62451172 5.97607422 C-57.60283954 7.30616083 -68.4858253 14.0266596 -77.35546875 23.2734375 Z " fill="#0373BC" transform="translate(293.6875,198.8125)"/>
<path d="M0 0 C8.53415848 5.09078758 13.90313705 12.58386264 17 22 C18.26985303 33.45541103 16.44979725 43.56194547 9.3125 52.875 C1.99084056 60.59293483 -7.27372596 63.97531916 -17.6875 64.5 C-25.30232793 64.3945764 -30.64993247 62.04889627 -37 58 C-37.61617187 57.61714844 -38.23234375 57.23429687 -38.8671875 56.83984375 C-45.22507924 52.24437278 -49.73521276 43.58872341 -51 36 C-52.27626416 25.04656801 -50.00157971 17.00236956 -44 8 C-33.03681547 -5.31243836 -14.99788032 -7.79982356 0 0 Z " fill="#0171BC" transform="translate(273,226)"/>
</svg>
