<svg width="64" height="64" viewBox="0 0 64 64" fill="none" xmlns="http://www.w3.org/2000/svg">
<path d="M34.052 11.2015C33.404 11.524 32.648 11.4165 32 11.094L29.84 9.91169C29.084 9.48175 28.112 9.48175 27.356 9.91169L25.304 11.094C24.548 11.524 23.576 11.524 22.82 11.094L20.768 9.91169C20.012 9.48175 19.04 9.48175 18.392 9.91169L16.34 11.094C15.584 11.524 14.72 11.524 13.964 11.094L11.804 9.91169C11.048 9.48175 10.184 9.48175 9.42799 9.91169L7.80799 10.7716L6.07999 11.7389V15.7159V56.7754L9.31999 58.6027C10.076 59.0326 11.048 59.0326 11.804 58.6027L13.856 57.4203C14.612 56.9904 15.584 56.9904 16.34 57.4203L18.392 58.6027C19.148 59.0326 20.12 59.0326 20.768 58.6027L22.82 57.4203C23.576 56.9904 24.548 56.9904 25.196 57.4203L27.248 58.6027C28.004 59.0326 28.976 59.0326 29.732 58.6027L31.784 57.4203C32.54 56.9904 33.512 56.9904 34.268 57.4203L36.32 58.6027C37.076 59.0326 38.048 59.0326 38.696 58.6027L40.748 57.4203C41.504 56.9904 42.368 56.9904 43.124 57.4203L45.284 58.6027C46.04 59.0326 46.904 59.0326 47.66 58.6027L50.9 56.7754V29.5816" stroke="#B19FFB" stroke-width="2" stroke-linecap="round" stroke-linejoin="round"/>
<path d="M25.4175 33.2641C25.1062 30.7848 23.0302 29.3386 20.3315 29.3386C17.8404 29.3386 14.8304 30.5782 15.038 33.574C15.4531 38.9457 26.1441 35.64 25.4175 42.2513C25.1062 45.3504 21.4733 45.8669 20.4353 45.8669C19.3974 45.8669 15.038 45.4537 14 40.9084" stroke="#B19FFB" stroke-width="2" stroke-linecap="round" stroke-linejoin="round"/>
<path d="M20.3316 25V49.6891" stroke="#B19FFB" stroke-width="2" stroke-linecap="round" stroke-linejoin="round"/>
<path d="M44.96 30.8714C52.1176 30.8714 57.92 25.0966 57.92 17.9731C57.92 10.8496 52.1176 5.07483 44.96 5.07483C37.8024 5.07483 32 10.8496 32 17.9731C32 25.0966 37.8024 30.8714 44.96 30.8714Z" stroke="#B19FFB" stroke-width="2" stroke-linecap="round" stroke-linejoin="round"/>
<path d="M44.96 10.879V18.618L50.684 24.2072" stroke="#B19FFB" stroke-width="2" stroke-linecap="round" stroke-linejoin="round"/>
</svg>
