<svg width="64" height="64" viewBox="0 0 64 64" fill="none" xmlns="http://www.w3.org/2000/svg">
<path d="M56.8128 6.5699L55.032 5.61792L53.1325 4.54694C52.3014 4.07094 51.2329 4.07094 50.4019 4.54694L48.1462 5.85591C47.3151 6.3319 46.2466 6.3319 45.4156 5.85591L43.1599 4.54694C42.3288 4.07094 41.379 4.07094 40.4293 4.54694L38.1736 5.85591C37.3425 6.3319 36.274 6.3319 35.5617 5.85591L33.306 4.54694C32.4749 4.07094 31.4064 4.07094 30.5754 4.54694L28.3197 5.85591C27.4886 6.3319 26.4201 6.3319 25.5891 5.85591L23.3334 4.54694C22.5023 4.07094 21.4338 4.07094 20.6028 4.54694L18.3471 5.85591C17.6347 6.3319 16.685 6.3319 15.8539 5.85591L13.4795 4.54694C12.6484 4.07094 11.6987 4.07094 10.8676 4.54694L9.0868 5.49892L7.18726 6.5699V56.43L10.7489 58.453C11.5799 58.929 12.6484 58.929 13.3608 58.453L15.6165 57.144C16.4475 56.668 17.516 56.668 18.3471 57.144L20.6028 58.453C21.4338 58.929 22.3836 58.929 23.3334 58.453L25.5891 57.144C26.4201 56.668 27.4886 56.668 28.201 57.144L30.4567 58.453C31.2877 58.929 32.3562 58.929 33.0685 58.453L35.3242 57.144C36.1553 56.668 37.2238 56.668 38.0548 57.144L40.3105 58.453C41.1416 58.929 42.2101 58.929 43.0411 58.453L45.2968 57.144C46.1279 56.668 47.0777 56.668 47.9087 57.144L50.2831 58.453C51.1142 58.929 52.064 58.929 52.895 58.453L56.4567 56.43L56.8128 6.5699Z" stroke="#B19FFB" stroke-width="1.5" stroke-linecap="round" stroke-linejoin="round"/>
<path d="M18 25.8308L20.464 21.7894L25.84 23.6979L24.608 28.525L18 25.8308Z" stroke="#B19FFB" stroke-width="1.5" stroke-miterlimit="10" stroke-linecap="round" stroke-linejoin="round"/>
<path d="M18 25.8308L24.608 28.5251L31.8879 43.2311L18 25.8308Z" stroke="#B19FFB" stroke-width="1.5" stroke-miterlimit="10" stroke-linecap="round" stroke-linejoin="round"/>
<path d="M46 25.4941L39.168 28.6374L31.8881 43.2313L46 25.4941Z" stroke="#B19FFB" stroke-width="1.5" stroke-miterlimit="10" stroke-linecap="round" stroke-linejoin="round"/>
<path d="M25.84 23.6979L24.608 28.5251L39.168 28.6373L37.824 23.6979H25.84Z" stroke="#B19FFB" stroke-width="1.5" stroke-miterlimit="10" stroke-linecap="round" stroke-linejoin="round"/>
<path d="M20.4641 21.7895L25.2801 19.7688H38.608L43.2 21.7895L37.824 23.6979H25.8401L20.4641 21.7895Z" stroke="#B19FFB" stroke-width="1.5" stroke-miterlimit="10" stroke-linecap="round" stroke-linejoin="round"/>
<path d="M37.8239 23.6979L43.1998 21.7894L45.9998 25.494L39.2798 28.525L37.8239 23.6979Z" stroke="#B19FFB" stroke-width="1.5" stroke-miterlimit="10" stroke-linecap="round" stroke-linejoin="round"/>
<path d="M24.608 28.5251H39.168L31.888 43.2312L24.608 28.5251Z" stroke="#B19FFB" stroke-width="1.5" stroke-miterlimit="10" stroke-linecap="round" stroke-linejoin="round"/>
</svg>
