<svg width="64" height="64" viewBox="0 0 64 64" fill="none" xmlns="http://www.w3.org/2000/svg">
<path d="M56.8128 35.5875V12.6688C56.8128 8.5125 53.4886 5.1875 49.3333 5.1875H14.6666C10.5114 5.1875 7.18719 8.5125 7.18719 12.6688V52.3313C7.18719 56.4875 10.5114 59.8125 14.6666 59.8125H49.452C53.6073 59.8125 56.9315 56.4875 56.9315 52.3313L56.8128 35.5875Z" stroke="#B19FFB" stroke-width="2" stroke-linecap="round" stroke-linejoin="round"/>
<path d="M17.516 17.5376H21.1964L24.9954 32.5001L22.9772 34.5189C20.9589 36.5376 22.3836 39.9814 25.2329 39.9814H41.7352" stroke="#B19FFB" stroke-width="2" stroke-linecap="round" stroke-linejoin="round"/>
<path d="M21.6713 19.4375H44.5845C46.0092 19.4375 46.8402 20.8625 46.2466 22.1687L40.548 33.3312C40.1918 33.925 39.5982 34.4 38.8859 34.4H23.0959L24.9955 32.5L21.6713 19.4375Z" stroke="#B19FFB" stroke-width="2" stroke-linecap="round" stroke-linejoin="round"/>
<path d="M26.7763 47.4626C27.8253 47.4626 28.6758 46.6119 28.6758 45.5626C28.6758 44.5133 27.8253 43.6626 26.7763 43.6626C25.7272 43.6626 24.8767 44.5133 24.8767 45.5626C24.8767 46.6119 25.7272 47.4626 26.7763 47.4626Z" fill="#B19FFB"/>
<path d="M39.3607 47.4626C40.4098 47.4626 41.2603 46.6119 41.2603 45.5626C41.2603 44.5133 40.4098 43.6626 39.3607 43.6626C38.3116 43.6626 37.4612 44.5133 37.4612 45.5626C37.4612 46.6119 38.3116 47.4626 39.3607 47.4626Z" fill="#B19FFB"/>
</svg>
