<?xml version="1.0" encoding="UTF-8"?>
<svg version="1.1" xmlns="http://www.w3.org/2000/svg" width="512" height="512">
<path d="M0 0 C3.31232698 -0.08834684 6.62434435 -0.14083584 9.9375 -0.1875 C10.86369141 -0.21263672 11.78988281 -0.23777344 12.74414062 -0.26367188 C20.47427107 -0.34504167 26.72802226 0.86062994 33.25 5.125 C39.47805047 11.63614367 41.56956804 17.41436323 41.56648254 26.4052887 C41.54067612 27.56189499 41.51486969 28.71850128 41.48828125 29.91015625 C41.47766914 31.72222816 41.47766914 31.72222816 41.46684265 33.57090759 C41.43901521 37.40208747 41.37629339 41.23176719 41.3125 45.0625 C41.28740231 47.67120275 41.26459173 50.27992856 41.24414062 52.88867188 C41.18922645 59.2596202 41.10571536 65.62970289 41 72 C41.82383682 71.99333817 42.64767365 71.98667633 43.49647522 71.97981262 C51.27911736 71.9195782 59.06164567 71.87396316 66.84446049 71.84456348 C70.84522041 71.82894044 74.84578692 71.80776412 78.84643555 71.77368164 C82.71086452 71.74096752 86.57510802 71.72312173 90.43966484 71.71536827 C91.91039383 71.7098463 93.38111323 71.6990633 94.85176277 71.68280983 C96.9197049 71.66087431 98.98689098 71.65803964 101.05493164 71.65942383 C102.81698692 71.64943108 102.81698692 71.64943108 104.61463928 71.63923645 C109.19387683 72.1272264 113.21692334 73.42881361 116.7421875 76.53515625 C121.35940917 82.76044478 121.86981714 87.27048856 121 95 C119.26560334 99.29113657 116.84501407 101.48264445 112.9375 103.875 C110.60592741 104.76794269 108.41764834 105.42808319 106 106 C106.42152344 106.48210937 106.84304688 106.96421875 107.27734375 107.4609375 C108.09912109 108.40839844 108.09912109 108.40839844 108.9375 109.375 C109.48277344 110.00148438 110.02804687 110.62796875 110.58984375 111.2734375 C113.77433838 115.17245863 113.38661406 119.0731451 113.3515625 123.9453125 C112.71108332 129.51036492 109.83956192 132.45874542 105.6875 135.9375 C105.130625 136.288125 104.57375 136.63875 104 137 C104.72316406 137.58007812 104.72316406 137.58007812 105.4609375 138.171875 C106.09257812 138.69265625 106.72421875 139.2134375 107.375 139.75 C108.00148438 140.26046875 108.62796875 140.7709375 109.2734375 141.296875 C112.79950048 144.77507287 113.33123742 147.94317343 113.4375 152.8125 C113.3455959 158.60952762 112.15562832 161.97386718 108 166 C105.6875 167.9375 105.6875 167.9375 104 169 C104.72316406 169.58007812 104.72316406 169.58007812 105.4609375 170.171875 C106.09257812 170.69265625 106.72421875 171.2134375 107.375 171.75 C108.00148438 172.26046875 108.62796875 172.7709375 109.2734375 173.296875 C112.79950048 176.77507287 113.33123742 179.94317343 113.4375 184.8125 C113.34776118 189.71822231 112.68799766 192.73404223 109.6796875 196.59765625 C104.04508511 201.30189406 98.72894345 201.43700884 91.73461914 201.40405273 C90.71420532 201.41091599 89.6937915 201.41777924 88.64245605 201.42485046 C85.27321388 201.44312934 81.90443734 201.43927632 78.53515625 201.43359375 C76.18069814 201.43815781 73.82624136 201.44346406 71.4717865 201.44947815 C66.533138 201.45841354 61.59465112 201.45598442 56.65600586 201.44604492 C50.36189094 201.43460549 44.06834126 201.45468767 37.77430058 201.48396206 C32.90716566 201.5024212 28.04016343 201.50201144 23.17300224 201.49632454 C20.85483449 201.49617224 18.53665721 201.50214022 16.21852303 201.51461601 C0.95949237 201.58511683 -13.48972766 201.36827382 -27.0625 193.5 C-28.06410156 192.9328125 -29.06570312 192.365625 -30.09765625 191.78125 C-33 190 -33 190 -35.77163696 187.92279053 C-39.39940427 185.7621176 -41.37574021 185.4871483 -45.55615234 185.45410156 C-47.5041272 185.42437256 -47.5041272 185.42437256 -49.49145508 185.39404297 C-50.85628202 185.39238183 -52.22110969 185.39123799 -53.5859375 185.390625 C-54.83802002 185.37499512 -56.09010254 185.35936523 -57.38012695 185.34326172 C-62.04489288 185.29076934 -66.70999258 185.27241363 -71.375 185.25 C-81.81125 185.1675 -92.2475 185.085 -103 185 C-103 147.71 -103 110.42 -103 72 C-71.1875 71.9375 -71.1875 71.9375 -61.20776367 71.97241211 C-58.5694759 71.95179123 -55.93120641 71.92860447 -53.29296875 71.90234375 C-52.28741692 71.91365074 -52.28741692 71.91365074 -51.2615509 71.92518616 C-39.43885887 72.04190636 -33.03809823 68.89062215 -24.01953125 61.5859375 C-6.51352825 44.04895043 -3.15767313 23.57140052 0 0 Z " fill="#FDC9A6" transform="translate(247,240)"/>
<path d="M0 0 C21.12 0 42.24 0 64 0 C64 37.29 64 74.58 64 113 C42.88 113 21.76 113 0 113 C0 75.71 0 38.42 0 0 Z " fill="#0296E5" transform="translate(144,312)"/>
<path d="M0 0 C2.87492742 0.67176522 3.40126903 1.97887704 4.97265625 4.4609375 C5.8845963 6.85197177 6.69912086 9.19392246 7.453125 11.6328125 C7.67084061 12.3152301 7.88855621 12.99764771 8.11286926 13.70074463 C8.80263919 15.86856193 9.48152627 18.03961023 10.16015625 20.2109375 C10.62753959 21.68642479 11.09563095 23.161688 11.56445312 24.63671875 C12.70873532 28.24224862 13.84327349 31.85071423 14.97265625 35.4609375 C16.58491089 35.48281128 16.58491089 35.48281128 18.22973633 35.50512695 C22.21640342 35.5630864 26.20250426 35.64031879 30.1887207 35.72338867 C31.91421318 35.75664922 33.63981474 35.78467769 35.36547852 35.80737305 C37.84568791 35.84089903 40.32489655 35.89321156 42.8046875 35.94921875 C43.5766597 35.95560867 44.3486319 35.9619986 45.14399719 35.96858215 C50.45989346 36.11462061 50.45989346 36.11462061 52.94018555 37.78979492 C54.86904387 40.91181791 54.62626628 42.89579191 53.97265625 46.4609375 C47.45483378 55.13006739 34.9532548 61.4738718 25.97265625 67.4609375 C27.28154455 72.67352776 28.71918749 77.81341266 30.5078125 82.8828125 C30.77899902 83.65834473 31.05018555 84.43387695 31.32958984 85.23291016 C31.87146501 86.76806385 32.4246834 88.29927437 32.99072266 89.82568359 C34.79446113 94.95957566 35.88628236 100.01058673 34.97265625 105.4609375 C32.78515625 107.5859375 32.78515625 107.5859375 29.97265625 108.4609375 C26.20614822 108.03288199 23.855089 106.97142353 20.828125 104.73046875 C19.68827148 103.89612305 19.68827148 103.89612305 18.52539062 103.04492188 C17.74486328 102.46033203 16.96433594 101.87574219 16.16015625 101.2734375 C15.39123047 100.70818359 14.62230469 100.14292969 13.83007812 99.56054688 C11.53649765 97.87084581 9.25292023 96.16855711 6.97265625 94.4609375 C6.19486816 93.87876465 5.41708008 93.2965918 4.61572266 92.69677734 C2.73358169 91.28631143 0.85251172 89.8744473 -1.02734375 88.4609375 C-3.82062082 89.78698012 -6.30782601 91.27079873 -8.8203125 93.0703125 C-9.52889404 93.5753833 -10.23747559 94.0804541 -10.9675293 94.60083008 C-11.70914307 95.13216553 -12.45075684 95.66350098 -13.21484375 96.2109375 C-14.74584933 97.29331456 -16.27709698 98.3753493 -17.80859375 99.45703125 C-20.20394005 101.15479103 -22.57692248 102.86942814 -24.93359375 104.62109375 C-30.23493831 108.4609375 -30.23493831 108.4609375 -34.46484375 108.4609375 C-37.02734375 107.4609375 -37.02734375 107.4609375 -39.02734375 105.4609375 C-40.0253008 97.53485556 -37.05683319 90.49709634 -34.52734375 83.0859375 C-33.67905372 80.55877967 -32.83747186 78.02947641 -31.99609375 75.5 C-31.61904297 74.38834473 -31.24199219 73.27668945 -30.85351562 72.13134766 C-29.92882426 69.60837774 -29.92882426 69.60837774 -30.02734375 67.4609375 C-31.58928179 66.06125071 -31.58928179 66.06125071 -33.6484375 64.66796875 C-34.79904663 63.85054199 -34.79904663 63.85054199 -35.97290039 63.01660156 C-36.7952417 62.44135742 -37.61758301 61.86611328 -38.46484375 61.2734375 C-40.11933869 60.09885137 -41.77299376 58.92308126 -43.42578125 57.74609375 C-44.22209961 57.18035645 -45.01841797 56.61461914 -45.83886719 56.03173828 C-55.11350976 49.37477149 -55.11350976 49.37477149 -58.02734375 46.4609375 C-58.48829656 40.2380746 -58.48829656 40.2380746 -57.0222168 37.76635742 C-53.87018856 35.70370964 -50.51015121 35.97943769 -46.859375 35.94921875 C-46.06456223 35.93126755 -45.26974945 35.91331635 -44.45085144 35.89482117 C-41.91390274 35.8406678 -39.37714268 35.80680722 -36.83984375 35.7734375 C-35.11911434 35.74026876 -33.39840985 35.70577951 -31.67773438 35.66992188 C-27.46107353 35.58493877 -23.24446911 35.51815208 -19.02734375 35.4609375 C-18.70459473 34.47174316 -18.3818457 33.48254883 -18.04931641 32.46337891 C-16.8514603 28.79746633 -15.64569083 25.13419788 -14.4375 21.47167969 C-13.91547521 19.88547749 -13.3956057 18.2985643 -12.87792969 16.7109375 C-12.13390137 14.43039094 -11.38218573 12.15250498 -10.62890625 9.875 C-10.39861725 9.16348785 -10.16832825 8.45197571 -9.93106079 7.71890259 C-7.84616737 1.46136018 -6.6993432 0.27548701 0 0 Z " fill="#FBB53F" transform="translate(258.02734375,79.5390625)"/>
<path d="M0 0 C1.134375 0.020625 2.26875 0.04125 3.4375 0.0625 C6.56129364 5.92979936 8.77368012 11.70588397 10.6875 18.0625 C10.955625 18.93261719 11.22375 19.80273438 11.5 20.69921875 C12.15208289 22.81848815 12.79777211 24.93947519 13.4375 27.0625 C14.26999268 27.08231934 15.10248535 27.10213867 15.96020508 27.12255859 C19.052265 27.20070742 22.14393383 27.28740206 25.2355957 27.37988281 C27.2304536 27.43694092 29.2255854 27.48414442 31.22070312 27.53125 C32.47431641 27.56992187 33.72792969 27.60859375 35.01953125 27.6484375 C36.17686768 27.6798584 37.3342041 27.7112793 38.52661133 27.74365234 C41.4375 28.0625 41.4375 28.0625 44.4375 30.0625 C45.25 33.1875 45.25 33.1875 44.4375 37.0625 C41.45748637 40.21226125 37.98267821 42.58650252 34.4375 45.0625 C32.41570898 46.54035739 30.39484563 48.01948488 28.375 49.5 C27.45589844 50.15871094 26.53679687 50.81742187 25.58984375 51.49609375 C23.56064296 52.88747608 23.56064296 52.88747608 22.4375 54.0625 C22.64955078 54.6922876 22.86160156 55.3220752 23.08007812 55.97094727 C24.04338615 58.85213805 24.99053396 61.73839888 25.9375 64.625 C26.27136719 65.61564453 26.60523438 66.60628906 26.94921875 67.62695312 C28.67420897 72.92513737 30.09710568 77.47833825 29.4375 83.0625 C27.4375 85.0625 27.4375 85.0625 24.7421875 85.48046875 C20.45980861 84.938844 17.8687531 82.95915569 14.5625 80.375 C13.40033669 79.49358401 12.23625803 78.61468797 11.0703125 77.73828125 C10.49055664 77.30080566 9.91080078 76.86333008 9.31347656 76.41259766 C6.13135549 74.12249751 2.79063452 72.09064958 -0.5625 70.0625 C-1.02624023 70.41030518 -1.48998047 70.75811035 -1.96777344 71.11645508 C-9.26513672 76.58947754 -9.26513672 76.58947754 -16.5625 82.0625 C-17.22797852 82.61123779 -17.89345703 83.15997559 -18.57910156 83.7253418 C-21.57125248 85.74257599 -24.0546853 85.38729766 -27.5625 85.0625 C-29.5625 83.0625 -29.5625 83.0625 -29.64672852 81.24780273 C-28.91643549 75.27830635 -27.42313096 69.81407649 -25.5 64.125 C-24.94421469 62.45001316 -24.39071107 60.77426694 -23.83984375 59.09765625 C-23.47234009 58.00529663 -23.47234009 58.00529663 -23.09741211 56.89086914 C-22.46890259 55.06007888 -22.46890259 55.06007888 -22.5625 53.0625 C-24.09286679 51.71038298 -24.09286679 51.71038298 -26.10546875 50.3828125 C-26.84990234 49.86589844 -27.59433594 49.34898437 -28.36132812 48.81640625 C-29.14958984 48.27886719 -29.93785156 47.74132812 -30.75 47.1875 C-41.82901729 39.55384349 -41.82901729 39.55384349 -44.5625 37.0625 C-45.125 34 -45.125 34 -44.5625 31.0625 C-42.23633467 28.68295985 -40.86882576 28.09699503 -37.53808594 27.72192383 C-36.38598633 27.73763428 -35.23388672 27.75334473 -34.046875 27.76953125 C-32.79648437 27.77919922 -31.54609375 27.78886719 -30.2578125 27.79882812 C-28.30488281 27.8365332 -28.30488281 27.8365332 -26.3125 27.875 C-24.99507813 27.88853516 -23.67765625 27.90207031 -22.3203125 27.91601562 C-19.06729679 27.95137449 -15.815104 28.00072967 -12.5625 28.0625 C-12.45365479 27.44576416 -12.34480957 26.82902832 -12.23266602 26.19360352 C-11.12224137 20.24510229 -9.58124339 14.67657869 -7.5 9 C-7.0968457 7.86401367 -7.0968457 7.86401367 -6.68554688 6.70507812 C-4.30126296 0.07546075 -4.30126296 0.07546075 0 0 Z " fill="#FBB53F" transform="translate(443.5625,242.9375)"/>
<path d="M0 0 C1.134375 0.020625 2.26875 0.04125 3.4375 0.0625 C6.56129364 5.92979936 8.77368012 11.70588397 10.6875 18.0625 C10.955625 18.93261719 11.22375 19.80273438 11.5 20.69921875 C12.15208289 22.81848815 12.79777211 24.93947519 13.4375 27.0625 C14.26999268 27.08231934 15.10248535 27.10213867 15.96020508 27.12255859 C19.052265 27.20070742 22.14393383 27.28740206 25.2355957 27.37988281 C27.2304536 27.43694092 29.2255854 27.48414442 31.22070312 27.53125 C32.47431641 27.56992187 33.72792969 27.60859375 35.01953125 27.6484375 C36.17686768 27.6798584 37.3342041 27.7112793 38.52661133 27.74365234 C41.4375 28.0625 41.4375 28.0625 44.4375 30.0625 C45.25 33.1875 45.25 33.1875 44.4375 37.0625 C41.45748637 40.21226125 37.98267821 42.58650252 34.4375 45.0625 C32.41570898 46.54035739 30.39484563 48.01948488 28.375 49.5 C27.45589844 50.15871094 26.53679687 50.81742187 25.58984375 51.49609375 C23.56064296 52.88747608 23.56064296 52.88747608 22.4375 54.0625 C22.64955078 54.6922876 22.86160156 55.3220752 23.08007812 55.97094727 C24.04338615 58.85213805 24.99053396 61.73839888 25.9375 64.625 C26.27136719 65.61564453 26.60523437 66.60628906 26.94921875 67.62695312 C28.67420897 72.92513737 30.09710568 77.47833825 29.4375 83.0625 C27.4375 85.0625 27.4375 85.0625 24.7421875 85.48046875 C20.45980861 84.938844 17.8687531 82.95915569 14.5625 80.375 C13.40033669 79.49358401 12.23625803 78.61468797 11.0703125 77.73828125 C10.49055664 77.30080566 9.91080078 76.86333008 9.31347656 76.41259766 C6.13135549 74.12249751 2.79063452 72.09064958 -0.5625 70.0625 C-1.02624023 70.41030518 -1.48998047 70.75811035 -1.96777344 71.11645508 C-9.26513672 76.58947754 -9.26513672 76.58947754 -16.5625 82.0625 C-17.22797852 82.61123779 -17.89345703 83.15997559 -18.57910156 83.7253418 C-21.57125248 85.74257599 -24.0546853 85.38729766 -27.5625 85.0625 C-29.5625 83.0625 -29.5625 83.0625 -29.64672852 81.24780273 C-28.91643549 75.27830635 -27.42313096 69.81407649 -25.5 64.125 C-24.94421469 62.45001316 -24.39071107 60.77426694 -23.83984375 59.09765625 C-23.47234009 58.00529663 -23.47234009 58.00529663 -23.09741211 56.89086914 C-22.46890259 55.06007888 -22.46890259 55.06007888 -22.5625 53.0625 C-24.09286679 51.71038298 -24.09286679 51.71038298 -26.10546875 50.3828125 C-26.84990234 49.86589844 -27.59433594 49.34898437 -28.36132812 48.81640625 C-29.14958984 48.27886719 -29.93785156 47.74132812 -30.75 47.1875 C-41.82901729 39.55384349 -41.82901729 39.55384349 -44.5625 37.0625 C-45.125 34 -45.125 34 -44.5625 31.0625 C-42.23633467 28.68295985 -40.86882576 28.09699503 -37.53808594 27.72192383 C-36.38598633 27.73763428 -35.23388672 27.75334473 -34.046875 27.76953125 C-32.79648437 27.77919922 -31.54609375 27.78886719 -30.2578125 27.79882812 C-28.30488281 27.8365332 -28.30488281 27.8365332 -26.3125 27.875 C-24.99507812 27.88853516 -23.67765625 27.90207031 -22.3203125 27.91601562 C-19.06729679 27.95137449 -15.815104 28.00072967 -12.5625 28.0625 C-12.45365479 27.44576416 -12.34480957 26.82902832 -12.23266602 26.19360352 C-11.12224137 20.24510229 -9.58124339 14.67657869 -7.5 9 C-7.0968457 7.86401367 -7.0968457 7.86401367 -6.68554688 6.70507812 C-4.30126296 0.07546075 -4.30126296 0.07546075 0 0 Z " fill="#FBB53F" transform="translate(67.5625,242.9375)"/>
<path d="M0 0 C1.134375 0.020625 2.26875 0.04125 3.4375 0.0625 C6.56129364 5.92979936 8.77368012 11.70588397 10.6875 18.0625 C10.955625 18.93261719 11.22375 19.80273438 11.5 20.69921875 C12.15208289 22.81848815 12.79777211 24.93947519 13.4375 27.0625 C14.26999268 27.08231934 15.10248535 27.10213867 15.96020508 27.12255859 C19.052265 27.20070742 22.14393383 27.28740206 25.2355957 27.37988281 C27.2304536 27.43694092 29.2255854 27.48414442 31.22070312 27.53125 C32.47431641 27.56992188 33.72792969 27.60859375 35.01953125 27.6484375 C36.17686768 27.6798584 37.3342041 27.7112793 38.52661133 27.74365234 C41.4375 28.0625 41.4375 28.0625 44.4375 30.0625 C45.25 33.1875 45.25 33.1875 44.4375 37.0625 C41.45748637 40.21226125 37.98267821 42.58650252 34.4375 45.0625 C32.41570898 46.54035739 30.39484563 48.01948488 28.375 49.5 C27.45589844 50.15871094 26.53679687 50.81742188 25.58984375 51.49609375 C23.56064296 52.88747608 23.56064296 52.88747608 22.4375 54.0625 C22.64955078 54.6922876 22.86160156 55.3220752 23.08007812 55.97094727 C24.04338615 58.85213805 24.99053396 61.73839888 25.9375 64.625 C26.27136719 65.61564453 26.60523438 66.60628906 26.94921875 67.62695312 C28.67420897 72.92513737 30.09710568 77.47833825 29.4375 83.0625 C27.4375 85.0625 27.4375 85.0625 24.7421875 85.48046875 C20.45980861 84.938844 17.8687531 82.95915569 14.5625 80.375 C13.40033669 79.49358401 12.23625803 78.61468797 11.0703125 77.73828125 C10.49055664 77.30080566 9.91080078 76.86333008 9.31347656 76.41259766 C6.13135549 74.12249751 2.79063452 72.09064958 -0.5625 70.0625 C-1.02624023 70.41030518 -1.48998047 70.75811035 -1.96777344 71.11645508 C-9.26513672 76.58947754 -9.26513672 76.58947754 -16.5625 82.0625 C-17.22797852 82.61123779 -17.89345703 83.15997559 -18.57910156 83.7253418 C-21.57125248 85.74257599 -24.0546853 85.38729766 -27.5625 85.0625 C-29.5625 83.0625 -29.5625 83.0625 -29.64672852 81.24780273 C-28.91643549 75.27830635 -27.42313096 69.81407649 -25.5 64.125 C-24.94421469 62.45001316 -24.39071107 60.77426694 -23.83984375 59.09765625 C-23.47234009 58.00529663 -23.47234009 58.00529663 -23.09741211 56.89086914 C-22.46890259 55.06007888 -22.46890259 55.06007888 -22.5625 53.0625 C-24.09286679 51.71038298 -24.09286679 51.71038298 -26.10546875 50.3828125 C-26.84990234 49.86589844 -27.59433594 49.34898437 -28.36132812 48.81640625 C-29.14958984 48.27886719 -29.93785156 47.74132812 -30.75 47.1875 C-41.82901729 39.55384349 -41.82901729 39.55384349 -44.5625 37.0625 C-45.125 34 -45.125 34 -44.5625 31.0625 C-42.23633467 28.68295985 -40.86882576 28.09699503 -37.53808594 27.72192383 C-36.38598633 27.73763428 -35.23388672 27.75334473 -34.046875 27.76953125 C-32.79648437 27.77919922 -31.54609375 27.78886719 -30.2578125 27.79882812 C-28.30488281 27.8365332 -28.30488281 27.8365332 -26.3125 27.875 C-24.99507813 27.88853516 -23.67765625 27.90207031 -22.3203125 27.91601562 C-19.06729679 27.95137449 -15.815104 28.00072967 -12.5625 28.0625 C-12.45365479 27.44576416 -12.34480957 26.82902832 -12.23266602 26.19360352 C-11.12224137 20.24510229 -9.58124339 14.67657869 -7.5 9 C-7.0968457 7.86401367 -7.0968457 7.86401367 -6.68554688 6.70507812 C-4.30126296 0.07546075 -4.30126296 0.07546075 0 0 Z " fill="#FBB53F" transform="translate(379.5625,138.9375)"/>
<path d="M0 0 C1.670625 0.061875 1.670625 0.061875 3.375 0.125 C6.10925259 5.7960424 8.24135364 11.50369195 10.125 17.5 C10.34760498 18.20189453 10.57020996 18.90378906 10.79956055 19.62695312 C11.70470478 22.56716273 12.375 25.03034965 12.375 28.125 C13.61588379 28.10143433 13.61588379 28.10143433 14.88183594 28.07739258 C18.62948777 28.01503696 22.37703045 27.97600654 26.125 27.9375 C27.42695313 27.91236328 28.72890625 27.88722656 30.0703125 27.86132812 C31.94589844 27.84682617 31.94589844 27.84682617 33.859375 27.83203125 C35.01147461 27.8163208 36.16357422 27.80061035 37.35058594 27.78442383 C40.68145643 28.15950974 42.04412194 28.75157112 44.375 31.125 C44.99609375 34 44.99609375 34 44.375 37.125 C42.39702842 39.13048586 40.71793806 40.55312999 38.4375 42.125 C37.85009033 42.55216309 37.26268066 42.97932617 36.6574707 43.41943359 C34.91208621 44.67854773 33.14903972 45.90668357 31.375 47.125 C30.42882812 47.77726562 29.48265625 48.42953125 28.5078125 49.1015625 C26.4789589 50.46925614 24.43982376 51.81247637 22.375 53.125 C24.06866197 60.36155569 26.03897007 67.35736806 28.60546875 74.3359375 C29.4576618 77.42459657 29.64900847 79.93572105 29.375 83.125 C27.375 85.125 27.375 85.125 24.15234375 85.54296875 C19.62474632 85.04198331 17.26781993 83.3183289 13.9375 80.4375 C9.29800077 76.56647159 4.56817962 73.22521891 -0.625 70.125 C-1.15456299 70.50833496 -1.68412598 70.89166992 -2.22973633 71.28662109 C-4.63190814 73.02498987 -7.03469689 74.76250393 -9.4375 76.5 C-10.27087891 77.10328125 -11.10425781 77.7065625 -11.96289062 78.328125 C-12.76533203 78.90820312 -13.56777344 79.48828125 -14.39453125 80.0859375 C-15.13292236 80.62009277 -15.87131348 81.15424805 -16.63208008 81.70458984 C-20.65259934 84.57012716 -22.64513199 85.54881855 -27.625 85.125 C-29.625 83.125 -29.625 83.125 -29.96875 80.21484375 C-29.81153402 74.80071844 -27.83882626 69.77273352 -26.125 64.6875 C-25.79113281 63.66978516 -25.45726563 62.65207031 -25.11328125 61.60351562 C-24.29299202 59.10749267 -23.46338507 56.61499091 -22.625 54.125 C-28.78071667 49.12366945 -35.02510229 44.31230397 -41.47265625 39.69140625 C-43.625 38.125 -43.625 38.125 -44.625 37.125 C-44.875 33.6875 -44.875 33.6875 -44.625 30.125 C-41.08935537 27.76790358 -39.40474745 27.82490265 -35.20703125 27.7109375 C-33.95341797 27.67226562 -32.69980469 27.63359375 -31.40820312 27.59375 C-30.09787109 27.5628125 -28.78753906 27.531875 -27.4375 27.5 C-26.1021884 27.46180662 -24.76690108 27.42275409 -23.43164062 27.3828125 C-20.16290112 27.28840847 -16.89416936 27.20282983 -13.625 27.125 C-13.39312988 26.37814941 -13.16125977 25.63129883 -12.92236328 24.86181641 C-11.87133286 21.48916957 -10.81079602 18.11958735 -9.75 14.75 C-9.38519531 13.574375 -9.02039063 12.39875 -8.64453125 11.1875 C-8.29003906 10.06601563 -7.93554688 8.94453125 -7.5703125 7.7890625 C-7.24562988 6.75217285 -6.92094727 5.7152832 -6.58642578 4.64697266 C-5.06089869 0.6452726 -4.35510956 0.15017619 0 0 Z " fill="#FBB53F" transform="translate(132.625,138.875)"/>
</svg>
