<svg width="72" height="72" viewBox="0 0 72 72" fill="none" xmlns="http://www.w3.org/2000/svg">
<rect width="72" height="72" rx="36" fill="#733DD9" fill-opacity="0.06"/>
<path d="M62.8131 26.495L63.3063 27.7608L64.5591 28.2479L63.2932 28.7412L62.8061 29.9939L62.3129 28.728L61.095 28.2389L62.3609 27.7457L62.8131 26.495Z" fill="#D5BEFF"/>
<path d="M19.2325 52.1639L20.3888 55.0619L23.275 56.1573L20.377 57.3137L19.2816 60.1998L18.1252 57.3018L15.3191 56.2012L18.2171 55.0448L19.2325 52.1639Z" fill="#D5BEFF"/>
<path d="M50.0277 8.66088L51.4208 12.3014L55.0778 13.7011L51.418 15.0892L50.0119 18.78L48.6188 15.1395L44.9617 13.7397L48.6187 12.3002L50.0277 8.66088Z" fill="#D5BEFF"/>
<path d="M30 36.0902L33.6293 39.8195C33.8634 40.0601 34.1561 40.0601 34.3902 39.8195L42 32" stroke="#733DD9" stroke-linecap="round" stroke-linejoin="round"/>
<path d="M35.5 52C44.6127 52 52 44.6127 52 35.5C52 26.3873 44.6127 19 35.5 19C26.3873 19 19 26.3873 19 35.5C19 44.6127 26.3873 52 35.5 52Z" stroke="#733DD9" stroke-linecap="round" stroke-linejoin="round"/>
</svg>
